<svg width="25" height="23" viewBox="0 0 25 23" fill="none" xmlns="http://www.w3.org/2000/svg">
<path fill-rule="evenodd" clip-rule="evenodd" d="M10.679 0L0.97104 3.61021L11.5595 8.07406L21.4864 3.26044L10.679 0V0ZM0.00122297 14.7967L2.35178 15.8522L2.353 4.97016L0.00244594 3.91351L0 14.798L0.00122297 14.7967ZM20.239 4.52133C16.5823 6.16378 15.8974 8.61462 15.8962 9.81435C15.8962 11.4629 16.8146 11.9643 18.418 11.6207L20.6902 11.1401C21.8888 10.8869 22.7436 10.712 22.7436 11.5669C22.7424 12.7067 21.4986 13.5359 20.3772 14.0385C18.3238 14.9606 17.9814 13.959 17.9814 13.3463L15.725 14.3589C15.725 14.8726 15.8289 15.4755 16.1848 15.9255L14.8506 16.5248L14.8518 7.51516L12.5024 8.56937L12.5 19.4526L20.4836 15.8693V15.8632C20.5044 15.8534 20.5264 15.8448 20.5472 15.8363C21.5439 15.3887 24.9988 13.5518 25 10.2693C25 8.3211 23.5838 8.35657 22.0429 8.67454L19.2899 9.26646C18.8228 9.37041 18.0914 9.51962 18.0914 8.66476C18.0914 7.69127 19.1652 6.87922 20.069 6.47319C22.1223 5.54985 22.3095 6.62117 22.3718 7.08835L24.6282 6.0745C24.6282 5.10958 24.1403 3.91718 22.5638 3.91718C21.9597 3.91718 21.1966 4.09207 20.2402 4.52133H20.239ZM3.18707 16.2851L5.5364 17.3405L5.53762 13.4123L8.24528 14.6292C11.2795 15.9928 11.8396 13.7413 11.8408 12.7666C11.8408 10.6227 10.5347 8.70145 8.35535 7.72185L3.18951 5.39942L3.18707 16.2827V16.2851ZM7.73163 12.5257L5.53762 11.54L5.53884 8.33089L7.421 9.17718C8.88367 9.83392 9.49026 10.5567 9.49026 11.6219C9.49026 12.1258 9.37653 12.7739 8.66721 12.7739C8.42873 12.7739 8.12298 12.7006 7.73285 12.5257H7.73163ZM11.4715 20.7746L0.00244594 15.7213V17.0898L11.5583 22.1933L22.943 17.0018V15.6027L11.4715 20.7746Z" fill="url(#paint0_linear)"/>
<path d="M6.15381 15.696C6.15992 15.5786 6.18194 15.482 6.21985 15.4037C6.25654 15.3267 6.30546 15.2692 6.36416 15.2313C6.42409 15.1934 6.49135 15.1738 6.56962 15.1738C6.64667 15.1738 6.72861 15.1909 6.81299 15.2264C7.02212 15.3132 7.18355 15.4392 7.29973 15.6068C7.41469 15.7731 7.47217 15.9688 7.47217 16.1938C7.47217 16.3002 7.45872 16.3931 7.43426 16.4702C7.40858 16.546 7.36944 16.6194 7.31808 16.6879L6.77386 17.3312L7.45627 17.6149V18.12L6.16848 17.5855V17.1281L6.9255 16.25C6.94996 16.2182 6.96708 16.1828 6.97565 16.1436C6.98421 16.1045 6.9891 16.0617 6.9891 16.014C6.9891 15.9614 6.97442 15.9064 6.94752 15.8477C6.91939 15.7902 6.87536 15.7486 6.81788 15.7254C6.77263 15.707 6.73105 15.7119 6.68947 15.7401C6.64911 15.7682 6.62588 15.8428 6.61976 15.9626L6.15503 15.6948L6.15381 15.696Z" fill="#676766"/>
<path d="M8.50664 16.6232C8.50664 16.5583 8.48952 16.5021 8.45772 16.4568C8.4247 16.4116 8.38434 16.3773 8.33542 16.3566C8.28406 16.3358 8.24248 16.3345 8.20946 16.3529C8.17644 16.3725 8.16054 16.414 8.16054 16.4789V17.7385C8.16054 17.8033 8.17766 17.8584 8.20946 17.9048C8.24248 17.9513 8.28406 17.9843 8.33542 18.0063C8.38557 18.0271 8.42592 18.0271 8.45772 18.0088C8.49074 17.9904 8.50664 17.9476 8.50664 17.8828V16.6232ZM8.97748 18.0809C8.97748 18.191 8.96036 18.2815 8.9249 18.3524C8.88943 18.4222 8.84296 18.4747 8.78548 18.5102C8.728 18.5445 8.65951 18.5616 8.58246 18.5604C8.50542 18.5604 8.42226 18.5408 8.33542 18.5053C8.24737 18.4699 8.16543 18.4197 8.08716 18.3549C8.00889 18.2913 7.9404 18.2179 7.8817 18.1348C7.823 18.0516 7.77653 17.9611 7.74228 17.862C7.70682 17.7618 7.69092 17.6578 7.69092 17.5477V16.2856C7.69092 16.1756 7.70804 16.0851 7.74228 16.0129C7.77775 15.9407 7.82422 15.8882 7.88415 15.8539C7.94285 15.8197 8.01134 15.8025 8.08961 15.8038C8.16665 15.805 8.24859 15.8233 8.33665 15.86C8.42348 15.8955 8.50786 15.9456 8.58613 16.0092C8.6644 16.074 8.73289 16.1474 8.79159 16.2294C8.8503 16.3125 8.89677 16.4043 8.92979 16.5045C8.96281 16.6048 8.97993 16.71 8.97993 16.8188V18.0809H8.97748Z" fill="#676766"/>
<path d="M9.61975 19.016V17.0152L9.28955 17.1486V16.5786L9.66623 16.4282L10.0906 16.6031V19.2117L9.61975 19.016Z" fill="#676766"/>
<path d="M11.0583 18.1399C11.1207 18.1656 11.1672 18.1595 11.1965 18.1228C11.2259 18.0849 11.2418 18.0066 11.2467 17.8892C11.2467 17.7767 11.2344 17.6886 11.21 17.6263C11.1855 17.5639 11.1427 17.5199 11.0828 17.4942C11.0106 17.4648 10.9629 17.4758 10.9385 17.526C10.914 17.5773 10.9006 17.6715 10.9006 17.8085C10.9006 17.9039 10.914 17.9773 10.9397 18.0286C10.9654 18.08 11.0057 18.1179 11.0595 18.1399H11.0583ZM10.9849 18.5056C10.9666 18.5056 10.9482 18.5031 10.9275 18.4982C10.9079 18.4946 10.8908 18.4885 10.8773 18.4836C10.7354 18.4249 10.6242 18.3221 10.5422 18.1742C10.4603 18.0262 10.4199 17.8244 10.4199 17.5663C10.4199 17.2936 10.4713 17.1053 10.574 17.0025C10.6767 16.8986 10.8431 16.8949 11.0705 16.9891C11.1892 17.038 11.2895 17.0979 11.3702 17.1676C11.4521 17.2374 11.5182 17.3181 11.5695 17.4074C11.6209 17.4979 11.6588 17.5969 11.682 17.7045C11.7053 17.8134 11.7163 17.9296 11.7163 18.0543C11.7163 18.0996 11.7138 18.146 11.7102 18.1937C11.7053 18.2414 11.6992 18.2879 11.6906 18.3307C11.6833 18.3735 11.6735 18.4139 11.6625 18.4505C11.6515 18.4872 11.6404 18.5154 11.6294 18.5362L11.1023 19.6295L10.5789 19.413L10.9935 18.5203L10.9837 18.5044L10.9849 18.5056Z" fill="#676766"/>
<defs>
<linearGradient id="paint0_linear" x1="-0.659182" y1="14.6219" x2="25.1627" y2="7.7035" gradientUnits="userSpaceOnUse">
<stop stop-color="#FBBA00"/>
<stop offset="1" stop-color="#E85222"/>
</linearGradient>
</defs>
</svg>
