<svg width="129" height="24" viewBox="0 0 129 24" fill="none" xmlns="http://www.w3.org/2000/svg">
<path d="M44.2141 14.6243C44.2141 14.4534 44.2141 14.3106 44.2141 14.2111C44.2141 12.1177 43.1041 10.7383 41.3093 10.7383C39.4874 10.7383 38.3623 12.3037 38.3623 14.2262C38.3623 16.0621 39.3728 17.7855 41.6371 17.7855C42.4204 17.7855 43.3172 17.5432 43.9858 17.0596L43.6018 16.0913C43.0749 16.391 42.5058 16.5619 41.9076 16.5619C40.698 16.5619 39.8996 15.7354 39.8856 14.6254H44.213L44.2141 14.6243ZM42.6768 13.5284H39.8726C39.8726 12.6878 40.3995 11.8905 41.2822 11.8905C42.2213 11.8905 42.6638 12.7451 42.6768 13.5284Z" fill="#676766"/>
<path d="M51.093 14.6243C51.093 14.4534 51.093 14.3106 51.093 14.2111C51.093 12.1177 49.983 10.7383 48.1882 10.7383C46.3653 10.7383 45.2412 12.3037 45.2412 14.2262C45.2412 16.0621 46.2517 17.7855 48.516 17.7855C49.2993 17.7855 50.1961 17.5432 50.8647 17.0596L50.4807 16.0913C49.9538 16.391 49.3837 16.5619 48.7865 16.5619C47.577 16.5619 46.7796 15.7354 46.7645 14.6254H51.0919L51.093 14.6243ZM49.5557 13.5284H46.7515C46.7515 12.6878 47.2784 11.8905 48.1612 11.8905C49.1002 11.8905 49.5427 12.7451 49.5557 13.5284Z" fill="#676766"/>
<path d="M58.0981 17.2594V7.74658H56.6171V10.8234C56.3607 10.7812 56.0761 10.739 55.6769 10.739C53.5846 10.739 52.0332 12.2482 52.0332 14.3416C52.0332 16.633 53.656 17.7863 55.6347 17.7863C56.7025 17.7863 57.542 17.558 58.0981 17.2594ZM56.6171 16.4199C56.418 16.4902 56.0902 16.5475 55.7905 16.5475C54.3246 16.5475 53.5132 15.5793 53.5132 14.2551C53.5132 12.8313 54.4815 11.9637 55.7343 11.9637C56.1616 11.9637 56.3747 12.0059 56.6171 12.0773V16.4199Z" fill="#676766"/>
<path d="M27.5658 20.2537C27.0671 20.9742 24.9845 20.389 22.9181 18.9544C20.8529 17.5155 19.5817 15.7672 20.0837 15.0478C20.5846 14.3284 22.665 14.9126 24.7313 16.3471C26.7988 17.7871 28.0678 19.5343 27.5669 20.2537H27.5658Z" fill="#F59D21"/>
<path d="M20.6614 18.6169L19.2983 21.9545L19.2885 21.9631C11.035 25.1168 2.69278 23.1056 0.509584 17.5015C0.166634 16.6209 0.00219049 15.697 2.67622e-05 14.7547C-0.0129556 9.66235 4.69855 4.00097 11.5532 1.45643C19.4844 -1.48732 23.8053 0.600673 25.0148 2.72004C26.3033 4.98113 25.5255 9.63422 15.3235 14.9213C14.4137 14.2916 13.8522 13.9022 13.2117 13.4597C13.4151 12.83 13.5915 12.3064 14.0588 10.9119C27.7346 2.2451 19.0538 -0.732181 12.3722 1.88376C5.73498 4.48456 1.72884 9.84843 3.32675 13.9541C4.9106 18.023 11.4743 19.2736 18.0379 16.7821L20.6625 18.6169H20.6614Z" fill="#273874"/>
<path d="M38.0577 17.6492C36.5604 15.1079 35.5424 13.3499 35.1497 13.14V13.1248C36.0952 12.7343 36.9532 11.8623 36.9532 10.51C36.9532 8.99104 36.0379 7.74365 33.6383 7.74365H31.2539V17.6492H32.7804V13.6138H33.6675C34.0462 13.7199 34.7873 15.0938 36.2846 17.6492H38.0588H38.0577ZM35.3964 10.6744C35.3964 11.621 34.6693 12.4238 33.6805 12.4238H32.7793V9.06785H33.6513C34.8879 9.06785 35.3964 9.81758 35.3964 10.6744Z" fill="#676766"/>
<path d="M73.7581 17.6417L72.0628 15.1091L70.3697 17.6417H68.7891L71.2092 14.1679L68.9741 10.9082H70.6401L72.2207 13.3283L73.8435 10.9082H75.3949L73.1024 14.2544L75.409 17.6417H73.7581Z" fill="#676766"/>
<path d="M80.7816 17.6424V13.6287C80.7816 12.8465 80.6388 12.0621 79.6997 12.0621C79.0311 12.0621 78.4047 12.4895 77.92 12.9017V17.6424H76.439V7.74658H77.92V11.664C78.5897 11.1371 79.2864 10.7379 80.1974 10.7379C81.1937 10.7379 82.2615 11.2789 82.2615 13.2154V17.6424H80.7805H80.7816Z" fill="#676766"/>
<path d="M84.0925 17.642V10.9085H85.5736V17.642H84.0925ZM85.7727 8.81621C85.7727 9.31387 85.3594 9.74012 84.8336 9.74012C84.2916 9.74012 83.8794 9.32685 83.8794 8.81621C83.8794 8.30341 84.2927 7.89014 84.8336 7.89014C85.3594 7.89014 85.7727 8.28826 85.7727 8.81621Z" fill="#676766"/>
<path d="M93.3823 14.0269C93.3823 11.8199 91.8872 10.738 90.2503 10.738C89.7375 10.738 89.2961 10.8386 88.8839 10.9804V7.74561H87.4028V17.3287C87.8583 17.5851 88.5842 17.7842 89.4952 17.7842C91.6167 17.7842 93.3823 16.3886 93.3823 14.0258V14.0269ZM91.9012 14.1416C91.9012 15.4939 91.0043 16.5466 89.7937 16.5466C89.4227 16.5466 89.1381 16.5195 88.8828 16.42V12.2764C89.1381 12.1618 89.4519 12.0341 89.9787 12.0341C91.1883 12.0341 91.9001 12.9742 91.9001 14.1416H91.9012Z" fill="#676766"/>
<path d="M94.7043 17.642V10.9085H96.1854V17.642H94.7043ZM96.3845 8.81621C96.3845 9.31387 95.9712 9.74012 95.4443 9.74012C94.9034 9.74012 94.4912 9.32685 94.4912 8.81621C94.4912 8.30341 94.9034 7.89014 95.4443 7.89014C95.9712 7.89014 96.3845 8.28826 96.3845 8.81621Z" fill="#676766"/>
<path d="M123.457 17.7855C122.389 17.7855 121.663 17.5291 121.121 17.1883L121.62 16.0913C122.061 16.391 122.688 16.6463 123.385 16.6463C124.126 16.6463 124.624 16.3467 124.624 15.8349C124.624 14.4815 121.535 14.9943 121.535 12.6608C121.535 11.5648 122.389 10.7383 123.97 10.7383C124.78 10.7383 125.351 10.8952 125.849 11.0942V12.347C125.322 12.1187 124.753 11.9197 124.027 11.9197C123.415 11.9197 122.973 12.1187 122.973 12.5893C122.973 13.7989 126.119 13.4429 126.119 15.7213C126.119 17.2024 124.865 17.7855 123.457 17.7855Z" fill="#676766"/>
<path d="M63.1011 17.644V7.7417H68.1783L67.7163 9.05075H64.6157V11.9253H67.7022V13.2354H64.6157V16.336H68.1923V17.644H63.1011Z" fill="#676766"/>
<path d="M100.235 17.7861C99.1248 17.7861 98.6542 17.1456 98.6542 16.2628V12.0641H97.4868V10.9098H98.6542V9.38759L100.135 8.93213V10.9109H102.228L101.758 12.0652H100.135V15.7381C100.135 16.265 100.349 16.5214 100.79 16.5214C101.231 16.5214 101.658 16.2931 101.929 16.1081L102.342 17.0764C101.702 17.547 100.876 17.7883 100.236 17.7883L100.235 17.7861Z" fill="#676766"/>
<path d="M103.583 17.6431V10.9085H105.063V17.6431H103.583ZM105.263 8.81621C105.263 9.31387 104.85 9.7412 104.323 9.7412C103.782 9.7412 103.369 9.32901 103.369 8.81621C103.369 8.30341 103.782 7.89014 104.323 7.89014C104.85 7.89014 105.263 8.28934 105.263 8.81621Z" fill="#676766"/>
<path d="M109.636 10.7412C108.71 10.7412 107.913 11.0842 107.344 11.6824C106.732 12.3088 106.375 13.2327 106.375 14.3016C106.375 15.3835 106.732 16.3377 107.387 16.9641C107.942 17.505 108.71 17.7895 109.636 17.7895C110.589 17.7895 111.387 17.4477 111.971 16.8646C112.584 16.2382 112.925 15.3132 112.925 14.2594C112.925 13.2198 112.597 12.3088 111.999 11.6965C111.429 11.0842 110.618 10.7412 109.636 10.7412ZM109.621 11.9378C110.746 11.9378 111.401 12.8627 111.401 14.2724C111.401 15.6388 110.787 16.6071 109.649 16.6071C108.553 16.6071 107.885 15.6669 107.885 14.2724C107.885 12.8909 108.483 11.9378 109.621 11.9378Z" fill="#676766"/>
<path d="M118.592 17.6427V13.6139C118.592 12.8879 118.45 12.0625 117.538 12.0625C116.869 12.0625 116.229 12.4606 115.701 12.8728V17.6427H114.22V10.9081H115.46L115.629 11.6633C116.383 11.0931 117.096 10.7383 118.021 10.7383C119.018 10.7383 120.072 11.3928 120.072 13.1443V17.6438H118.59L118.592 17.6427Z" fill="#676766"/>
<path fill-rule="evenodd" clip-rule="evenodd" d="M127.615 7.74561C128.38 7.74561 129 8.36551 129 9.13039C129 9.89527 128.38 10.5152 127.615 10.5152C126.85 10.5152 126.23 9.89527 126.23 9.13039C126.23 8.36551 126.85 7.74561 127.615 7.74561ZM127.615 7.9609C128.261 7.9609 128.784 8.48452 128.784 9.12931C128.784 9.77518 128.26 10.2977 127.615 10.2977C126.969 10.2977 126.447 9.7741 126.447 9.12931C126.447 8.48344 126.97 7.9609 127.615 7.9609Z" fill="#676766"/>
<path d="M127.307 9.07787H127.485C127.687 9.07787 127.859 9.00323 127.859 8.81282C127.859 8.67867 127.761 8.54344 127.485 8.54344C127.405 8.54344 127.349 8.54884 127.307 8.55534V9.07787ZM127.307 9.93146H127.061V8.38981C127.189 8.37142 127.313 8.35303 127.498 8.35303C127.731 8.35303 127.883 8.40279 127.976 8.46987C128.067 8.53803 128.116 8.64297 128.116 8.78902C128.116 8.99241 127.982 9.11574 127.816 9.16442V9.17741C127.951 9.20121 128.043 9.32346 128.073 9.55173C128.11 9.79082 128.148 9.88386 128.172 9.93255H127.914C127.877 9.88278 127.839 9.74214 127.809 9.53875C127.772 9.34293 127.674 9.26936 127.478 9.26936H127.307V9.93255V9.93146Z" fill="#676766"/>
</svg>
