<svg width="60" height="40" viewBox="0 0 60 40" fill="none" xmlns="http://www.w3.org/2000/svg">
<path d="M20.2949 7H38.7122V25.4173H20.2949V7Z" fill="black"/>
<path d="M20.4668 7.17188H38.5398V25.331H20.4668V7.17188Z" fill="white"/>
<path d="M25.2859 8.11914C23.8464 8.68453 22.4704 9.5943 21.4195 10.9592L21.4131 8.11914H25.2859Z" fill="black"/>
<path d="M37.5928 9.16297C36.597 8.92812 35.7239 9.36525 34.9349 9.82179C33.2537 8.37998 30.5764 9.02581 28.7527 9.69795C27.7375 10.1155 26.3019 10.9115 26.3341 12.2425C26.3341 12.6926 26.6445 13.0906 27.0263 13.3059C27.3107 13.4822 27.6405 13.5539 27.9249 13.73C27.9574 13.7561 27.9702 13.8017 27.9443 13.8408C27.7632 14.0106 27.5176 14.0431 27.285 14.0953C26.2437 14.2846 25.2674 14.6238 24.336 15.0544C23.8962 15.2633 23.4696 15.4983 23.0621 15.7787C22.4801 15.42 21.9174 14.9893 21.4131 14.4477V11.5901C22.3313 10.1938 23.7412 9.14997 25.1703 8.56269L26.2373 8.11914H37.5928V9.16297Z" fill="black"/>
<path d="M34.6084 10.0078C32.0831 11.509 30.6002 14.1183 29.4477 16.5217C27.6346 16.7343 25.6468 16.6828 23.9956 16.1609C25.0641 14.9562 26.5015 14.563 27.9066 14.1378C28.0556 14.0733 28.2885 13.9765 28.2885 13.7706C28.2756 13.545 28.01 13.442 27.8741 13.2679C27.5245 12.9135 27.4662 12.3337 27.615 11.8634C28.0748 10.4716 29.577 9.84019 30.8462 9.51163C32.0636 9.20239 33.6111 9.21523 34.6084 10.0078ZM37.5934 9.53096V12.2434C35.6898 14.389 33.3457 15.6261 30.7946 16.3026C31.8888 14.2407 33.0998 12.2112 34.9775 10.478C35.2817 10.8515 35.3788 11.4122 35.2171 11.889C35.094 12.3142 34.7896 12.7974 34.33 12.9328C34.1615 12.9713 33.948 12.9263 33.8573 13.1133C33.8444 13.1439 33.8378 13.1767 33.8378 13.2099C33.8378 13.2431 33.8444 13.2759 33.8573 13.3066C33.9156 13.416 34.0257 13.4418 34.1421 13.4418C34.8804 13.371 35.3464 12.5785 35.5408 11.9663C35.7415 11.3544 35.5473 10.7036 35.2623 10.1944C35.9294 9.71789 36.6999 9.32469 37.5934 9.53096Z" fill="black"/>
<path d="M37.5928 20.9071C36.0982 21.9468 34.3321 22.5642 32.3785 22.2263C31.7923 22.1224 31.2132 21.9813 30.6448 21.8038C31.6671 20.8876 32.6243 19.8672 32.6308 18.4895C32.5791 18.0605 32.5274 17.5863 32.1392 17.3329C32.0615 17.3134 31.9709 17.3068 31.9063 17.3392C31.8694 17.3607 31.8384 17.3908 31.8158 17.4271C31.7933 17.4634 31.78 17.5046 31.777 17.5473C31.7964 17.7424 32.0164 17.8592 32.1067 18.0282C32.3657 18.4702 32.2231 19.094 32.0486 19.5296C31.7057 20.3483 30.9812 21.0568 30.2759 21.6872C29.3973 21.3087 28.5586 20.8427 27.7724 20.2964C28.9951 19.2826 29.8491 18.0155 30.5606 16.7417C33.1872 16.1958 35.5677 15.039 37.5928 13.0244V20.9071ZM22.7651 15.9552C22.2669 16.3711 21.7818 16.8779 21.4196 17.3913L21.4131 14.9024C21.8465 15.2922 22.2865 15.6626 22.7651 15.9552Z" fill="black"/>
<path d="M29.269 16.9165C28.7697 18.0146 28.2446 19.1001 27.3627 20.0442C26.5524 19.5432 25.7159 18.9332 24.6656 19.1516C24.3673 19.2286 24.0432 19.4405 23.92 19.7488C23.8033 20.0122 23.8422 20.3781 24.0302 20.5964C24.4255 21.0204 24.9702 21.1231 25.5409 21.136C26.2605 21.136 26.8699 20.8791 27.4341 20.5066C28.1926 21.0204 28.9642 21.5278 29.7617 21.9644C28.4325 22.6581 26.8959 23.1012 25.2621 22.8508C24.0498 22.6707 22.7011 21.746 22.4418 20.4872C22.1177 18.9458 22.8047 17.6036 23.7321 16.4668C25.3982 17.0514 27.4083 17.122 29.269 16.9165Z" fill="black"/>
<path fill-rule="evenodd" clip-rule="evenodd" d="M24.4855 20.5042C25.2817 20.978 26.4147 20.7573 27.1075 20.225C27.0232 20.175 26.9395 20.1238 26.8558 20.0727C26.277 19.719 25.6992 19.3659 24.9581 19.3942C24.6731 19.4267 24.343 19.5501 24.2459 19.8616C24.1811 20.1147 24.2782 20.3548 24.4855 20.5042ZM30.0858 22.1464C29.037 22.737 27.9233 23.1785 26.6803 23.3017C24.5826 23.5029 22.8088 22.7694 21.3844 21.2635V24.2948H37.5828V21.4908C36.8512 22.1464 36.0614 22.6397 35.1809 22.9252C33.4328 23.5224 31.5683 22.9317 30.0858 22.1464ZM22.1225 28.3452H20.1221V28.527H22.1225V28.3452ZM16.0886 29.6626L16.0368 29.5329C15.9267 29.3187 15.7131 29.1176 15.4931 29.0394C15.0722 28.8902 14.5736 28.981 14.25 29.2796C13.9974 29.5263 13.9005 29.8899 14.0039 30.2404C14.1867 30.6407 14.5287 30.8335 14.8727 31.0275C15.1867 31.2045 15.5024 31.3825 15.7002 31.7201C15.7971 31.9212 15.7971 32.2003 15.6677 32.3821C15.4281 32.6873 15.0332 32.7715 14.6577 32.6742C14.3923 32.6159 14.1657 32.3432 14.0751 32.103C13.9918 32.1223 13.9082 32.148 13.825 32.1736L13.8226 32.1743C13.8977 32.3878 14.0298 32.5764 14.2045 32.7197C14.5413 32.9857 15.0657 33.0314 15.467 32.882C15.8167 32.7717 16.1599 32.4276 16.2051 32.0577C16.2954 31.346 15.7928 31.0411 15.2823 30.7314C14.9873 30.5525 14.6898 30.3719 14.5025 30.1105C14.3923 29.9352 14.4054 29.6561 14.5283 29.4874C14.7097 29.2536 14.988 29.1693 15.2793 29.2212C15.5448 29.2601 15.7844 29.5198 15.875 29.7665L16.0886 29.6626ZM11.4986 29.3122H12.9486V29.0656H11V32.8887H12.9486V32.6419H11.4986V30.9544H12.7674V30.7142L11.492 30.7077L11.4986 29.3122ZM18.3157 29.3122H19.3969V29.0656H16.736V29.3122L17.8108 29.3187V32.8887H18.3157V29.3122ZM20.7564 29.3122H22.2066V29.0656H20.2385V32.8887H22.2066V32.6419H20.7564V30.9544H22.0126V30.7142L20.7499 30.7077L20.7564 29.3122ZM23.9028 29.3122H25.3532V29.0656H23.3914V32.8887H25.3401V32.6419H23.9028V30.9544H25.1588V30.7142L23.9028 30.7077V29.3122ZM30.0532 32.6419L28.6095 32.6354V29.0656H28.1046V32.8887H30.0532V32.6419ZM33.4781 32.8756H34.0802L32.4164 29.0656H32.2157L30.4871 32.8821L30.8172 32.8756L31.5617 31.2075H32.766L32.7852 31.2204C32.8758 31.4346 32.9643 31.6498 33.0528 31.8649C33.1923 32.2037 33.3316 32.5421 33.4781 32.8756ZM35.7245 32.6225C35.414 32.4343 35.265 32.1097 35.2196 31.7722L35.2132 29.0656H34.7148V31.5385C34.7212 31.9346 34.8247 32.2851 35.0902 32.5706C35.4787 33.0055 36.139 33.077 36.6763 32.9016C37.1489 32.7589 37.518 32.272 37.5567 31.7852L37.5632 29.0656H37.2848V31.1491C37.3171 31.7074 37.2719 32.2461 36.7993 32.5771C36.5144 32.7849 36.0289 32.8042 35.7245 32.6225ZM41.791 30.9739C41.8169 30.2211 41.3831 29.4876 40.6838 29.215C40.3066 29.0413 39.8532 29.0539 39.401 29.0664C39.1936 29.0721 38.9865 29.0778 38.787 29.0656V32.8887C38.9711 32.8798 39.1606 32.8836 39.3501 32.8873C39.8534 32.8973 40.357 32.9072 40.7615 32.6809C41.4091 32.3564 41.791 31.6813 41.791 30.9739ZM43.3041 29.3122H44.7497V29.0656H42.7943V32.8887H44.7497V32.6419H43.3041V30.9544H44.5553V30.7142L43.3041 30.7077V29.3122ZM48.0253 30.5002C48.1938 30.2081 48.1809 29.7601 47.9671 29.4876C47.5864 29.0318 46.9905 29.0473 46.3981 29.0627C46.2352 29.0669 46.0726 29.0712 45.9147 29.0656V32.8887H46.4085V31.0454H46.8859L46.9053 31.0583L47.7663 32.8888L48.2649 32.8823L47.3716 30.9806L47.3651 30.948C47.6175 30.8831 47.87 30.7468 48.0253 30.5002ZM40.7472 32.2709C41.2838 31.7109 41.3291 30.76 41.0445 30.0694C40.7341 29.3726 39.9905 29.2489 39.2663 29.3009V32.6421C39.8159 32.6553 40.3656 32.6682 40.7472 32.2709ZM47.5759 30.4149C47.6858 30.2193 47.6923 29.9263 47.5888 29.7178C47.3765 29.2965 46.9103 29.2987 46.4692 29.3008C46.4397 29.3009 46.4103 29.3011 46.3812 29.3011V30.8251C46.8469 30.8448 47.3301 30.8448 47.5759 30.4149ZM32.1658 29.809L31.655 30.9422H32.6508L32.1658 29.809Z" fill="black"/>
</svg>
