<svg width="80" height="40" viewBox="0 0 80 40" fill="none" xmlns="http://www.w3.org/2000/svg">
<path d="M21.9126 22.6988H23.7091V18.1113H21.9126V22.6988Z" fill="#2B2A29"/>
<path d="M24.0342 16.4884C24.0342 17.1402 23.499 17.677 22.8493 17.677C22.1996 17.677 21.6772 17.1402 21.6772 16.4884C21.6772 15.8243 22.1996 15.313 22.8493 15.313C23.4989 15.313 24.0342 15.8243 24.0342 16.4884Z" fill="#E72485"/>
<path d="M14.8357 9.00006C14.8357 9.00006 12.9501 10.342 13.001 13.2173C13.0266 16.1305 15.9952 17.2681 15.9952 17.2681C15.9952 17.2681 13.6 16.3223 13.3707 13.0381C13.3323 10.2268 14.8357 9 14.8357 9V9.00006Z" fill="#2B2A29"/>
<path d="M13.5234 30.7235C13.5234 30.7235 17.8297 29.1136 19.2438 23.5295C20.6581 17.8555 15.5364 14.1499 15.5364 14.1499C15.5364 14.1499 19.677 17.242 18.4412 23.6443C17.0651 29.1518 13.5234 30.7234 13.5234 30.7234V30.7235Z" fill="#E72485"/>
<path d="M24.3457 18.1237H26.1551V18.6986C26.639 18.2255 27.0595 18.0469 27.6328 18.0469C28.6138 18.0469 29.1872 18.6473 29.1872 19.6568V22.6982H27.3909V20.1936C27.3909 19.7209 27.2252 19.5035 26.8683 19.5035C26.588 19.5035 26.3588 19.6568 26.1551 20.002V22.6982H24.3457V18.1237Z" fill="#2B2A29"/>
<path d="M33.0986 22.2767C32.6401 22.6219 32.1303 22.7752 31.5189 22.7752C30.9838 22.7752 30.4358 22.6219 30.1048 22.2896C29.8498 22.0209 29.7734 21.7016 29.7734 21.0756V19.2482H28.9453V18.6858L31.1619 16.731H31.5569V18.1111H32.9966V19.2481H31.5569V20.628C31.5569 21.0496 31.71 21.2284 32.0922 21.2284C32.3979 21.2284 32.7292 21.1264 33.0985 20.8837V22.2767L33.0986 22.2767Z" fill="#2B2A29"/>
<path d="M35.4302 19.0317C35.9401 19.0442 36.2074 19.3895 36.2201 20.0794H35.4302V20.7439H37.6854C37.8763 19.1595 36.7935 18.0347 35.4302 18.0347V19.0317ZM35.4302 22.7758V21.5744C35.5959 21.6383 35.7741 21.6641 35.9781 21.6641C36.4366 21.6641 36.8829 21.4978 37.4178 21.1271L37.7363 21.8941C37.2393 22.4691 36.5258 22.7758 35.6341 22.7758H35.4302ZM34.6403 20.0794C34.6021 19.3513 34.9589 19.0317 35.4175 19.0317H35.4302V18.0347H35.4175C34.067 18.0347 33.0605 19.0317 33.0605 20.3733C33.0605 21.6766 33.9778 22.6864 35.4302 22.7758V21.5744C35.0099 21.4084 34.7168 21.0762 34.7042 20.7439H35.4302V20.0794H34.6403Z" fill="#2B2A29"/>
<path d="M39.4569 18.1237V19.3504H39.4694C39.788 18.4813 40.2848 18.0469 40.9216 18.0469C41.2785 18.0469 41.6226 18.1619 42.0429 18.3917L41.2404 20.2318C40.9599 19.9379 40.7307 19.8356 40.4759 19.8356C40.0174 19.8356 39.7242 20.2702 39.6223 20.7941V22.6982H37.813V18.1237H39.4569H39.4569Z" fill="#2B2A29"/>
<path d="M46.4507 17.6891C45.7118 17.3058 45.0363 17.1013 44.3483 17.1013C42.8832 17.1013 41.7748 18.2256 41.7748 19.7339C41.7748 21.2793 42.8706 22.3534 44.3993 22.3534C45.0745 22.3534 45.7117 22.1744 46.5142 21.7524V22.2255C45.8263 22.596 45.1129 22.775 44.3993 22.775C42.6157 22.775 41.2905 21.4841 41.2905 19.7339C41.2905 17.9319 42.743 16.7051 44.3738 16.7051C45.0236 16.7051 45.7241 16.8583 46.4506 17.1909V17.6891L46.4507 17.6891Z" fill="#2B2A29"/>
<path d="M51.8007 22.6988H51.3421V19.8874H47.4181V22.6988H46.9468V16.7822H47.4181V19.5041H51.3421V16.7822H51.8007V22.6988Z" fill="#2B2A29"/>
<path d="M55.8656 20.2574H54.6045V20.641H56.0444L56.9868 22.6984H57.4707L54.7449 16.731H54.6045V17.5102L55.8656 20.2574ZM54.6045 20.2574H53.3561L54.5914 17.4975L54.6045 17.5102V16.731H54.4773L51.7759 22.6984H52.2472L53.1898 20.641H54.6045V20.2574H54.6045Z" fill="#2B2A29"/>
<path d="M59.1142 17.1658C59.9805 17.2551 60.3629 17.7024 60.3629 18.3158C60.3629 18.9547 59.9678 19.3892 59.1142 19.4659V19.8875C59.5091 19.9768 59.7638 20.2452 60.2987 21.0631L61.3182 22.6988H61.8532L60.5283 20.6414C60.2606 20.2323 60.0188 19.8875 59.7509 19.7345C60.5031 19.4659 60.8722 18.9803 60.8722 18.3031C60.8722 17.5619 60.4138 16.8589 59.1141 16.7952V17.1658H59.1142ZM57.8781 17.1531H58.821C58.9236 17.1531 59.0254 17.1658 59.1142 17.1658V16.7952C59.0506 16.7952 58.9869 16.7822 58.9105 16.7822H57.4321V22.6988H57.8782V19.8618H58.6558C58.8339 19.8618 58.9869 19.8618 59.1143 19.8875V19.4659H57.8782V17.1531L57.8781 17.1531Z" fill="#2B2A29"/>
<path d="M66.5673 16.7822H67.026V22.6988H66.5673V17.4467H66.5549L64.3255 20.2323L62.0828 17.4467H62.0699V22.6988H61.624V16.7822H62.0699L64.3255 19.5426L66.5673 16.7822Z" fill="#2B2A29"/>
<path fill-rule="evenodd" clip-rule="evenodd" d="M22.9881 30.174C23.4745 30.174 23.7836 29.9005 23.7836 29.5028V29.343C23.7836 28.9454 23.4745 28.672 22.9881 28.672H22.5654V28.0186H23.5633V27.6883H22.1465V30.1741H22.988L22.9881 30.174ZM22.981 29.0022C23.2259 29.0022 23.368 29.1264 23.368 29.3182V29.5277C23.368 29.7194 23.2259 29.8437 22.981 29.8437H22.5653V29.0022H22.981ZM24.1455 30.174H24.941C25.4274 30.174 25.7684 29.9005 25.7684 29.5028V29.3465C25.7684 28.9489 25.4274 28.6753 24.941 28.6753H24.5645V27.6882H24.1455V30.174ZM24.9338 29.0056C25.1824 29.0056 25.3493 29.1299 25.3493 29.3252V29.5277C25.3493 29.7158 25.1824 29.8437 24.9338 29.8437H24.5645V29.0056H24.9338ZM26.5568 30.174V29.0837H26.9828V29.5347C26.9828 29.9325 27.3201 30.2059 27.7924 30.2059C28.2612 30.2059 28.602 29.9325 28.602 29.5347V28.3274C28.602 27.9298 28.2612 27.6563 27.7924 27.6563C27.3201 27.6563 26.9828 27.9298 26.9828 28.3274V28.7536H26.5568V27.6882H26.1377V30.174H26.5568ZM28.183 29.5561C28.183 29.7514 28.0162 29.8756 27.7924 29.8756C27.5616 29.8756 27.4018 29.7549 27.4018 29.5596V28.3025C27.4018 28.1143 27.5616 27.9864 27.7924 27.9864C28.0162 27.9864 28.183 28.1142 28.183 28.3025V29.556V29.5561ZM30.4841 27.6882H28.7938V28.0185H29.4294V30.174H29.8448V28.0185H30.4841V27.6882ZM31.1233 30.174L32.0464 28.4872V30.174H32.4656V27.6882H32.1034L31.1801 29.3715V27.6882H30.7611V30.174H31.1233ZM32.8775 29.2436H33.6088V28.9417H32.8775V29.2436ZM34.4399 30.174V28.0185H35.2744V30.174H35.6934V27.6882H34.0209V30.174H34.4399ZM36.922 29.1869C37.4084 29.1869 37.7492 28.9134 37.7492 28.5157V28.3594C37.7492 27.9617 37.4084 27.6882 36.922 27.6882H36.1407V30.174H36.5597V29.1869H36.922ZM36.9149 28.0186C37.1599 28.0186 37.3302 28.1464 37.3302 28.3346V28.5406C37.3302 28.7323 37.1599 28.8602 36.9149 28.8602H36.5597V28.0187H36.9149V28.0186ZM39.7484 29.5347V28.3275C39.7484 27.9298 39.397 27.6564 38.9105 27.6564C38.4241 27.6564 38.076 27.9298 38.076 28.3275V29.5347C38.076 29.9325 38.4241 30.2059 38.9105 30.2059C39.397 30.2059 39.7484 29.9325 39.7484 29.5347ZM39.3294 29.5562C39.3294 29.7479 39.1483 29.8756 38.9104 29.8756C38.6654 29.8756 38.4915 29.7514 38.4915 29.5597V28.3026C38.4915 28.1144 38.6654 27.9864 38.9104 27.9864C39.1483 27.9864 39.3294 28.1143 39.3294 28.3026V29.5561V29.5562ZM41.5595 29.8438H40.5865V29.0838H41.4529V28.7537H40.5865V28.0186H41.5595V27.6883H40.1675V30.1741H41.5595V29.8438ZM43.2 30.1741H43.6579L42.7952 28.8885L43.5976 27.6883H43.1361L42.3548 28.8601V27.6883H41.9359V30.1741H42.3548V28.9135L43.2 30.1741H43.2ZM45.4406 27.6883H43.7503V28.0186H44.3859V30.1741H44.8013V28.0186H45.4406V27.6883ZM46.8857 30.1741V28.5264L47.7984 30.1741H48.1535V27.6883H47.7486V29.336L46.8395 27.6883H46.4809V30.1741H46.8856H46.8857ZM49.5205 28.3097C49.5205 27.7984 49.2756 27.6564 48.9383 27.6564C48.601 27.6564 48.3593 27.7984 48.3593 28.3097C48.3593 28.8211 48.601 28.9631 48.9383 28.9631C49.2756 28.9631 49.5205 28.8211 49.5205 28.3097ZM49.1939 28.3097C49.1939 28.6826 49.0838 28.7359 48.9383 28.7359C48.7928 28.7359 48.6861 28.6826 48.6861 28.3097C48.6861 27.937 48.7928 27.8873 48.9383 27.8873C49.0839 27.8873 49.1939 27.937 49.1939 28.3097ZM49.7763 28.0115L49.9219 28.285L50.4119 28.0754V30.1741H50.8024V27.6883H50.5361L49.7763 28.0115V28.0115ZM52.1802 30.1741H53.0041C53.5083 30.1741 53.835 29.9148 53.835 29.5562V29.4318C53.835 29.194 53.6859 28.9951 53.4337 28.8921C53.6398 28.7892 53.7605 28.6152 53.7605 28.4056V28.2813C53.7605 27.9369 53.4337 27.6883 52.9331 27.6883H52.1802V30.1741ZM52.9934 29.0732C53.2597 29.0732 53.4159 29.2117 53.4159 29.4V29.5527C53.4159 29.7231 53.2597 29.8438 52.9934 29.8438H52.5992V29.0733H52.9934V29.0732ZM52.9188 28.0186C53.1887 28.0186 53.3415 28.1358 53.3415 28.2955V28.4305C53.3415 28.6116 53.1887 28.7429 52.9188 28.7429H52.5992V28.0186H52.9188ZM55.7312 29.1869C56.2177 29.1869 56.5586 28.9134 56.5586 28.5157V28.3594C56.5586 27.9617 56.2177 27.6882 55.7312 27.6882H54.9499V30.174H55.369V29.1869H55.7312ZM55.724 28.0186C55.9691 28.0186 56.1396 28.1464 56.1396 28.3346V28.5406C56.1396 28.7323 55.9692 28.8602 55.724 28.8602H55.369V28.0187H55.724V28.0186ZM58.5579 29.5347V28.3275C58.5579 27.9298 58.2063 27.6564 57.7197 27.6564C57.2332 27.6564 56.8853 27.9298 56.8853 28.3275V29.5347C56.8853 29.9325 57.2332 30.2059 57.7197 30.2059C58.2063 30.2059 58.5579 29.9325 58.5579 29.5347ZM58.1388 29.5562C58.1388 29.7479 57.9577 29.8756 57.7197 29.8756C57.4749 29.8756 57.3007 29.7514 57.3007 29.5597V28.3026C57.3007 28.1144 57.4748 27.9864 57.7197 27.9864C57.9577 27.9864 58.1388 28.1143 58.1388 28.3026V29.5561V29.5562ZM60.2054 29.3999V29.5562C60.2054 29.7514 60.0243 29.8756 59.7864 29.8756C59.5414 29.8756 59.3673 29.7549 59.3673 29.5597V28.3026C59.3673 28.1144 59.5414 27.9864 59.7864 27.9864C60.0243 27.9864 60.2054 28.1143 60.2054 28.3026V28.4623H60.6245V28.3273C60.6245 27.9297 60.2729 27.6562 59.7864 27.6562C59.3 27.6562 58.9519 27.9297 58.9519 28.3273V29.5346C58.9519 29.9324 59.3 30.2058 59.7864 30.2058C60.2729 30.2058 60.6245 29.9324 60.6245 29.5346V29.3998H60.2054V29.3999ZM62.2294 29.3999V29.5562C62.2294 29.7514 62.0484 29.8756 61.8104 29.8756C61.5655 29.8756 61.3915 29.7549 61.3915 29.5597V28.3026C61.3915 28.1144 61.5655 27.9864 61.8104 27.9864C62.0483 27.9864 62.2294 28.1143 62.2294 28.3026V28.4623H62.6485V28.3273C62.6485 27.9297 62.2969 27.6562 61.8104 27.6562C61.3239 27.6562 60.976 27.9297 60.976 28.3273V29.5346C60.976 29.9324 61.3239 30.2058 61.8104 30.2058C62.2969 30.2058 62.6485 29.9324 62.6485 29.5346V29.3998H62.2294V29.3999ZM63.3871 30.174L64.3103 28.4872V30.174H64.7294V27.6882H64.3671L63.4439 29.3715V27.6882H63.0247V30.174H63.3871ZM65.539 30.174L66.4621 28.4872V30.174H66.8813V27.6882H66.5191L65.5958 29.3715V27.6882H65.1768V30.174H65.539Z" fill="#2B2A29"/>
<path fill-rule="evenodd" clip-rule="evenodd" d="M21.7637 25.6374H66.963V25.1929H21.7637V25.6374Z" fill="url(#paint0_linear)"/>
<defs>
<linearGradient id="paint0_linear" x1="21.7557" y1="25.4151" x2="66.9709" y2="25.4151" gradientUnits="userSpaceOnUse">
<stop stop-color="#E72485"/>
<stop offset="0.309804" stop-color="#E72485"/>
<stop offset="0.470588" stop-color="#E1C7DE"/>
<stop offset="0.501961" stop-color="#E1C7DE"/>
<stop offset="0.560784" stop-color="#BBE2F1"/>
<stop offset="0.8" stop-color="#068F92"/>
<stop offset="1" stop-color="#068F92"/>
</linearGradient>
</defs>
</svg>
