<svg width="80" height="40" viewBox="0 0 80 40" fill="none" xmlns="http://www.w3.org/2000/svg">
<path fill-rule="evenodd" clip-rule="evenodd" d="M28.596 21.7012C29.7588 21.7012 30.7018 22.6442 30.7018 23.8069V25.5828C30.7018 25.7222 30.5861 25.8356 30.3574 25.8356C30.1287 25.8356 30.013 25.7225 30.013 25.5828V25.1717C29.7355 25.6033 29.1033 25.9127 28.5576 25.9127C27.3564 25.9127 26.4902 24.9697 26.4902 23.8069C26.4902 22.6442 27.4333 21.7012 28.596 21.7012ZM47.9402 25.8356C48.174 25.8356 48.3587 25.7234 48.3822 25.5828L48.8278 22.8943L48.8216 22.5561C48.8212 22.5299 48.8384 22.5075 48.8646 22.5064C48.8913 22.505 48.9127 22.5266 48.9171 22.5515L48.9613 22.7954L50.1447 25.5828C50.2222 25.7653 50.3534 25.8352 50.5522 25.8352C50.7509 25.8352 50.8818 25.7653 50.9591 25.5828L52.1426 22.7954L52.1868 22.5515C52.1914 22.5257 52.2128 22.505 52.2392 22.5064C52.2657 22.5078 52.2827 22.531 52.2822 22.5561L52.2763 22.8943L52.7219 25.5828C52.7451 25.7231 52.9301 25.8356 53.1638 25.8356C53.3976 25.8356 53.5161 25.7225 53.4885 25.5828L52.8015 22.1176C52.7585 21.9004 52.628 21.7789 52.3142 21.7773C52.0004 21.7759 51.8451 21.9151 51.7547 22.1176L50.62 24.6605L50.6 24.9067C50.5979 24.9329 50.5786 24.9543 50.5524 24.9543C50.5255 24.9543 50.5066 24.932 50.5048 24.9067L50.4847 24.6605L49.3501 22.1176C49.2597 21.9151 49.1044 21.7759 48.7906 21.7773C48.4767 21.7787 48.3463 21.9004 48.3033 22.1176L47.6165 25.5828C47.5889 25.7225 47.7072 25.8356 47.9409 25.8356H47.9402ZM46.5983 23.4204H43.8571C43.9755 22.8048 44.5417 22.3523 45.2257 22.3523C45.9766 22.3523 46.4554 22.8048 46.5983 23.4204ZM46.985 24.0715C47.1962 24.0715 47.3372 23.9199 47.3292 23.7133C47.2857 22.5938 46.4338 21.7012 45.2255 21.7012C44.0627 21.7012 43.1197 22.6442 43.1197 23.8069C43.1197 24.9697 44.0901 25.9127 45.2255 25.9127C46.0931 25.9127 46.8095 25.5168 47.1716 24.8947C47.2316 24.7746 47.1783 24.6048 46.9061 24.6048C46.6629 24.6048 46.5463 24.6262 46.3793 24.81C46.1193 25.0962 45.7556 25.2619 45.2255 25.2619C44.5298 25.2619 43.9148 24.7486 43.8322 24.072H46.9848L46.985 24.0715ZM41.8576 25.1846H39.7157C40.3348 24.6211 40.5379 23.6052 40.5722 22.4293H41.8576V25.1846ZM39.0607 26.8208C39.277 26.8208 39.3862 26.7076 39.3862 26.5679V25.8359H42.2225V26.5679C42.2225 26.7074 42.3317 26.8208 42.548 26.8208C42.7643 26.8208 42.8735 26.7076 42.8735 26.5679V25.5103C42.8735 25.2941 42.727 25.1848 42.5464 25.1848V22.1153C42.5464 21.9294 42.4307 21.7785 42.202 21.7785H40.3302C40.0495 21.7785 39.8919 21.9858 39.8859 22.2575C39.8832 23.5122 39.7178 24.461 39.0524 25.0682C38.8578 25.2458 38.7354 25.3732 38.7354 25.6456V26.5682C38.7354 26.7076 38.8449 26.821 39.0609 26.821L39.0607 26.8208ZM54.6434 22.4293V25.5828C54.6434 25.7222 54.5277 25.8356 54.299 25.8356C54.0703 25.8356 53.9546 25.7225 53.9546 25.5828V22.1151C53.9546 21.9292 54.0703 21.7782 54.299 21.7782H56.9983C57.227 21.7782 57.3427 21.9292 57.3427 22.1151V25.5828C57.3427 25.7222 57.227 25.8356 56.9983 25.8356C56.7696 25.8356 56.6539 25.7225 56.6539 25.5828V22.4293H54.6434ZM63.3987 25.2103V27.7468C63.3987 27.8862 63.283 27.9996 63.0543 27.9996C62.8256 27.9996 62.7099 27.8864 62.7099 27.7468V23.8069C62.7099 22.6826 63.6143 21.7012 64.8157 21.7012C66.0168 21.7012 66.883 22.6056 66.883 23.8069C66.883 24.9697 66.0939 25.9127 64.8157 25.9127C64.33 25.9127 63.762 25.7211 63.3989 25.2103H63.3987ZM64.8154 22.3525C63.9946 22.3525 63.3987 23.0038 63.3987 23.8072C63.3987 24.649 63.9561 25.2619 64.777 25.2619C65.7134 25.2619 66.194 24.5719 66.194 23.8072C66.194 23.004 65.6749 22.3525 64.8154 22.3525ZM67.6107 25.8359C67.8394 25.8359 67.9551 25.7227 67.9551 25.583V22.0313C67.9551 21.8917 67.8394 21.7785 67.6107 21.7785C67.382 21.7785 67.2663 21.8917 67.2663 22.0313V25.583C67.2663 25.7225 67.382 25.8359 67.6107 25.8359ZM68.8797 23.6155L70.1495 22.243C70.2442 22.1404 70.2265 21.9756 70.0528 21.8268C69.8794 21.6779 69.7169 21.6878 69.6268 21.7943L68.069 23.6342L69.8577 25.8115C69.9465 25.9194 70.1103 25.9281 70.2838 25.7791C70.4575 25.6302 70.5113 25.4675 70.4189 25.3629L68.8797 23.6155ZM31.5144 25.8359C31.7431 25.8359 31.8588 25.7227 31.8588 25.583V22.0313C31.8588 21.8917 31.7431 21.7785 31.5144 21.7785C31.2857 21.7785 31.17 21.8917 31.17 22.0313V25.583C31.17 25.7225 31.2857 25.8359 31.5144 25.8359ZM32.7836 23.6155L34.0531 22.243C34.1479 22.1404 34.1302 21.9756 33.9565 21.8268C33.783 21.6779 33.6206 21.6878 33.5306 21.7943L31.9729 23.6342L33.7616 25.8115C33.8502 25.9194 34.0142 25.9281 34.1877 25.7791C34.3612 25.6302 34.415 25.4675 34.3228 25.3629L32.7836 23.6155ZM60.0717 21.7012C61.2345 21.7012 62.1775 22.6442 62.1775 23.8069V25.5828C62.1775 25.7222 62.0618 25.8356 61.8331 25.8356C61.6044 25.8356 61.4887 25.7225 61.4887 25.5828V25.1717C61.2112 25.6033 60.579 25.9127 60.0333 25.9127C58.8322 25.9127 57.9662 24.9697 57.9662 23.8069C57.9662 22.6442 58.9092 21.7012 60.0717 21.7012ZM60.0717 22.3523C60.8926 22.3523 61.4887 22.9651 61.4887 23.8069C61.4887 24.6488 60.8926 25.2616 60.0333 25.2616C59.174 25.2616 58.655 24.6103 58.655 23.8069C58.655 23.0038 59.2511 22.3523 60.0717 22.3523ZM36.4046 21.7012C37.5673 21.7012 38.5104 22.6442 38.5104 23.8069V25.5828C38.5104 25.7222 38.3947 25.8356 38.166 25.8356C37.9373 25.8356 37.8216 25.7225 37.8216 25.5828V25.1717C37.5441 25.6033 36.9119 25.9127 36.3662 25.9127C35.165 25.9127 34.2991 24.9697 34.2991 23.8069C34.2991 22.6442 35.2421 21.7012 36.4048 21.7012H36.4046ZM36.4046 22.3523C37.2255 22.3523 37.8216 22.9651 37.8216 23.8069C37.8216 24.6488 37.2255 25.2616 36.3662 25.2616C35.5069 25.2616 34.9879 24.6103 34.9879 23.8069C34.9879 23.0038 35.584 22.3523 36.4048 22.3523H36.4046ZM28.5955 22.3523C29.4164 22.3523 30.0125 22.9651 30.0125 23.8069C30.0125 24.6488 29.4164 25.2616 28.5571 25.2616C27.6978 25.2616 27.1786 24.6103 27.1786 23.8069C27.1786 23.0038 27.7747 22.3523 28.5955 22.3523Z" fill="#54AF3B"/>
<path fill-rule="evenodd" clip-rule="evenodd" d="M19.5318 23.755V25.0942C19.5318 25.4955 19.8617 25.8141 20.2627 25.8141C20.6637 25.8141 20.9936 25.4943 20.9936 25.0942V20.4465C20.9936 18.507 19.9443 16.5218 18.1417 15.6611C17.5068 15.3579 16.9371 15.5896 16.834 15.9352C16.7126 16.3435 16.9638 16.7148 17.3222 16.9097C18.5899 17.576 19.4986 18.9143 19.4986 20.4465C19.4986 22.6765 17.7267 24.4183 15.4967 24.4183C13.2168 24.4183 11.4947 22.6565 11.4947 20.4465C11.4947 18.9143 12.3533 17.5762 13.6212 16.9097C13.9796 16.7146 14.2309 16.3435 14.1094 15.9352C14.0066 15.5896 13.4369 15.3582 12.8017 15.6611C11.1301 16.4592 10 18.3945 10 20.4465C10 23.4817 12.2498 25.913 15.4355 25.913C17.1304 25.913 18.5869 25.0418 19.5315 23.755H19.5318ZM15.4771 13C15.0669 13 14.7398 13.3281 14.7398 13.7362V18.9108C14.7398 19.3208 15.0669 19.647 15.4771 19.647C15.8871 19.647 16.2145 19.3201 16.2145 18.9108V13.7362C16.2145 13.3253 15.8873 13 15.4771 13V13Z" fill="#54AF3B"/>
</svg>
