<svg width="60" height="40" viewBox="0 0 60 40" fill="none" xmlns="http://www.w3.org/2000/svg">
<path d="M20.77 14.4302H21.7173V17.6504C21.7173 17.8335 21.8688 17.9975 22.0644 17.9975C22.2601 17.9975 22.4117 17.8335 22.4117 17.6504V14.4302H23.3587V17.6504C23.3587 18.0103 23.2324 18.3135 22.9799 18.566C22.7274 18.8185 22.4242 18.9448 22.0644 18.9448C21.7045 18.9448 21.4014 18.8185 21.1488 18.566C20.8963 18.3135 20.77 18.0103 20.77 17.6504V14.4302Z" fill="#0E4176"/>
<path d="M24.5579 15.3772V16.4821H24.9998C25.3029 16.4821 25.5555 16.236 25.5555 15.9328C25.5555 15.6297 25.3029 15.3772 24.9998 15.3772H24.5579ZM24.5579 17.24V18.85H24.2422V14.4302H25C25.423 14.4302 25.7829 14.569 26.0671 14.8532C26.3577 15.131 26.5029 15.4909 26.5029 15.9331C26.5029 16.4887 26.2062 16.9813 25.7453 17.2338L27.0714 18.8502H25.8463L24.5581 17.2402L24.5579 17.24Z" fill="#0E4176"/>
<path d="M27.9546 17.0503V17.9027H28.2702C28.5166 17.9027 28.6996 17.7133 28.6996 17.4797C28.6996 17.2333 28.5039 17.0503 28.2702 17.0503H27.9546ZM28.2702 16.1033C28.4722 16.1033 28.6365 15.9454 28.6365 15.7434C28.6365 15.5413 28.4722 15.3772 28.2702 15.3772H27.9546V16.1033H28.2702ZM27.6387 18.85V14.4302H28.2702C28.6429 14.4302 28.9586 14.5437 29.2047 14.7711C29.4572 14.9922 29.5835 15.2951 29.5835 15.6803C29.5835 16.0085 29.4005 16.3812 29.1416 16.5642C29.4383 16.7663 29.6469 17.1704 29.6469 17.5428C29.6469 17.9406 29.5142 18.2626 29.2489 18.4965C28.99 18.7301 28.6618 18.85 28.2702 18.85H27.6387Z" fill="#0E4176"/>
<path d="M32.5455 16.0338L31.9962 16.9872H33.0886L32.5457 16.0338H32.5455ZM34.888 18.85L34.3638 17.9344H30.7269L30.2027 18.85H29.8364L32.3622 14.4302H32.7285L35.254 18.85H34.8878H34.888Z" fill="#0E4176"/>
<path d="M35.8218 14.4302H36.1564L38.0128 17.1579V14.4302H38.3284V18.85H37.9938L36.1374 16.1161V18.85H35.8218V14.4302Z" fill="#0E4176"/>
<path d="M21.0857 22.2827V23.1351H21.4013C21.6477 23.1351 21.8307 22.9457 21.8307 22.7121C21.8307 22.4657 21.635 22.2827 21.4013 22.2827H21.0857ZM21.4013 21.3355C21.6035 21.3355 21.7676 21.1775 21.7676 20.9756C21.7676 20.7734 21.6035 20.6093 21.4013 20.6093H21.0857V21.3355H21.4013ZM20.77 24.0821V19.6621H21.4013C21.774 19.6621 22.0897 19.7758 22.3358 20.0031C22.5883 20.2242 22.7146 20.5273 22.7146 20.9122C22.7146 21.2407 22.5316 21.6131 22.2727 21.7963C22.5694 21.9985 22.7777 22.4024 22.7777 22.775C22.7777 23.1727 22.6451 23.4948 22.38 23.7284C22.1211 23.962 21.7927 24.0821 21.4013 24.0821H20.77Z" fill="#0E4176"/>
<path d="M25.4613 19.6621V20.6093H24.4826V21.7143H25.3982V22.0302H24.4826V23.1351H25.4613V24.0821H23.5356V19.6621H25.4613Z" fill="#0E4176"/>
<path d="M28.7381 21.266L28.1888 22.2194H29.2812L28.7383 21.266H28.7381ZM31.0807 24.0821L30.5564 23.1666H26.9195L26.3953 24.0821H26.0293L28.5551 19.6621H28.9214L31.4469 24.0821H31.0807Z" fill="#0E4176"/>
<path d="M32.0146 19.6621H32.9619V22.8824C32.9619 23.0654 33.1134 23.2295 33.3092 23.2295C33.505 23.2295 33.6566 23.0654 33.6566 22.8824V19.6621H34.6038V22.8824C34.6038 23.2423 34.4775 23.5454 34.225 23.7979C33.9725 24.0507 33.6693 24.1767 33.3095 24.1767C32.9496 24.1767 32.6465 24.0504 32.3939 23.7979C32.1414 23.5454 32.0151 23.2423 32.0151 22.8824V19.6621H32.0146Z" fill="#0E4176"/>
<path d="M35.2974 20.6093V19.6621H37.6969V20.6093H36.6551V24.0821H36.3394V20.6093H35.2974Z" fill="#0E4176"/>
<path d="M40.633 19.6621H41.738L40.0963 22.4974V24.0821H39.7804V22.4974L38.1387 19.6621H39.2439L39.9383 20.925L40.633 19.6621Z" fill="#0E4176"/>
<path d="M20.5181 24.8926H21.4906L22.0399 27.3363L22.7724 24.8926H23.0628L23.8142 27.3363L24.3068 24.8926H24.6288L23.7447 29.3126H23.4416L22.5892 26.5974L21.7748 29.3126H21.4717L20.5181 24.8926Z" fill="#0E4176"/>
<path d="M27.1852 24.8926V25.8398H26.2065V26.9448H27.1221V27.2604H26.2065V28.3656H27.1852V29.3126H25.2593V24.8926H27.1852Z" fill="#0E4176"/>
<path d="M29.9948 24.8926V25.8398H29.0158V26.9448H29.9316V27.2604H29.0158V28.3656H29.9948V29.3126H28.0688V24.8926H29.9948Z" fill="#0E4176"/>
<path d="M32.4061 29.3126L31.1936 27.2415V29.3126H30.8779V24.8926H31.1936V26.9701L32.4125 24.8926H33.4858L32.1725 27.1025L33.4796 29.3126H32.4061Z" fill="#0E4176"/>
<path d="M36.1061 24.8926V25.8398H35.1274V26.9448H36.043V27.2604H35.1274V28.3656H36.1061V29.3126H34.1802V24.8926H36.1061Z" fill="#0E4176"/>
<path d="M36.9888 24.8926H37.3236L39.18 27.6203V24.8926H39.4956V29.3126H39.1611L37.3047 26.5785V29.3126H36.9888V24.8926Z" fill="#0E4176"/>
<path d="M40.6953 25.8398V28.3656H40.7901C41.1436 28.3656 41.4406 28.2457 41.6867 28.0119C41.9329 27.7783 42.0528 27.4751 42.0528 27.1027C42.0528 26.7303 41.9329 26.4272 41.6867 26.1935C41.4404 25.9599 41.1436 25.84 40.7901 25.84H40.6953V25.8398ZM40.3794 29.3126V24.8926H40.7899C41.4087 24.8926 41.9327 25.1009 42.3557 25.5239C42.7851 25.9408 43 26.4648 43 27.1025C43 27.7402 42.7853 28.2644 42.3557 28.6874C41.9327 29.1041 41.4084 29.3126 40.7899 29.3126H40.3794Z" fill="#0E4176"/>
<path d="M21.5882 31.7801V32.0477H21.648C21.7244 32.0477 21.7825 31.9879 21.7825 31.9146C21.7825 31.8427 21.7241 31.7846 21.6525 31.7801H21.5882ZM21.5882 31.6006H21.648C21.7154 31.6006 21.7676 31.5467 21.7676 31.4793C21.7676 31.4119 21.7154 31.3596 21.648 31.3596H21.5882V31.6006ZM21.835 31.6888C21.9201 31.75 21.9622 31.8309 21.9622 31.934C21.9622 32.0193 21.9322 32.0896 21.871 32.1449C21.8097 32.2002 21.7364 32.2272 21.648 32.2272H21.4087V31.1802H21.648C21.7333 31.1802 21.8036 31.2071 21.8603 31.2594C21.9185 31.3116 21.9471 31.379 21.9471 31.4613C21.9471 31.5554 21.9097 31.6318 21.835 31.6888Z" fill="#0E4176"/>
<path d="M22.7612 31.1802H22.9601L23.1457 31.5706L23.3311 31.1802H23.5299L23.2353 31.798V32.2272H23.0559V31.7994L22.7612 31.1802Z" fill="#0E4176"/>
<path d="M25.7275 31.3596V31.1802H26.221V31.3596H26.064V32.0477H26.221V32.2272H25.7275V32.0477H25.8845V31.3596H25.7275Z" fill="#0E4176"/>
<path d="M27.3054 32.2272H27.126V31.1802H27.2979L27.5372 31.7576V31.1802H27.7166V32.2272H27.5447L27.3054 31.6498V32.2272Z" fill="#0E4176"/>
<path d="M28.6055 31.3596V31.1802H29.2037V31.3596H28.9944V32.2272H28.815V31.3596H28.6055Z" fill="#0E4176"/>
<path d="M30.5867 31.1802V31.3596H30.2727V31.6141H30.5718V31.7935H30.2727V32.0477H30.5867V32.2272H30.0933V31.1802H30.5867Z" fill="#0E4176"/>
<path d="M31.6856 31.3596V31.6737H31.7154C31.8128 31.6737 31.8873 31.6079 31.8873 31.5166C31.8873 31.4254 31.8125 31.3596 31.7154 31.3596H31.6856ZM32.1897 32.2272H31.9622L31.6853 31.8711V32.2272H31.5059V31.1802H31.7151C31.8137 31.1802 31.8977 31.2116 31.9648 31.2759C32.0322 31.3388 32.0665 31.4195 32.0665 31.5166C32.0665 31.6543 31.9904 31.7663 31.8721 31.8203L32.1892 32.2272H32.1897Z" fill="#0E4176"/>
<path d="M33.9237 31.354L33.8012 31.4767C33.7189 31.384 33.6201 31.3377 33.505 31.3377C33.3988 31.3377 33.3106 31.3736 33.2418 31.4439C33.173 31.5141 33.1387 31.6009 33.1387 31.7042C33.1387 31.8075 33.1732 31.8941 33.2418 31.9645C33.3106 32.0348 33.399 32.0707 33.505 32.0707C33.6201 32.0707 33.7189 32.0243 33.8012 31.9317L33.9237 32.0544C33.822 32.1799 33.6724 32.2504 33.505 32.2504C33.348 32.2504 33.2179 32.1979 33.1146 32.092C33.0115 31.9858 32.959 31.8572 32.959 31.7044C32.959 31.5519 33.0115 31.4233 33.1146 31.3171C33.2177 31.2109 33.348 31.1587 33.505 31.1587C33.6726 31.1587 33.822 31.2289 33.9237 31.3545V31.354Z" fill="#0E4176"/>
<path d="M35.8602 32.2272H35.6808V31.7935H35.0076V32.2272H34.8281V31.1802H35.0076V31.6141H35.6808V31.1802H35.8602V32.2272Z" fill="#0E4176"/>
<path d="M37.3435 31.3835L37.1236 31.8233H37.5634L37.3435 31.3835ZM36.9217 32.2272H36.7197L37.2418 31.1802H37.4437L37.9673 32.2272H37.7667L37.653 32.0028H37.0337L36.9214 32.2272H36.9217Z" fill="#0E4176"/>
<path d="M39.0069 31.3596V31.6737H39.0369C39.1343 31.6737 39.2088 31.6079 39.2088 31.5166C39.2088 31.4254 39.1341 31.3596 39.0369 31.3596H39.0069ZM39.511 32.2272H39.2835L39.0066 31.8711V32.2272H38.8271V31.1802H39.0366C39.1352 31.1802 39.2192 31.2116 39.2863 31.2759C39.3537 31.3388 39.388 31.4195 39.388 31.5166C39.388 31.6543 39.3119 31.7663 39.1937 31.8203L39.5107 32.2272H39.511Z" fill="#0E4176"/>
<path d="M40.5647 32.2272H40.3853V31.1802H40.5633L40.9837 31.6155L41.4039 31.1802H41.5819V32.2272H41.4025V31.4329L40.9837 31.8668L40.5647 31.4329V32.2272Z" fill="#0E4176"/>
<path d="M11.5378 13.7185C11.6638 13.7187 11.7544 13.7778 11.7854 13.8727C11.7929 13.8963 11.797 13.9202 11.7977 13.9448C11.7984 13.9933 11.7903 14.0145 11.7761 14.063C11.7627 14.1098 11.7591 14.1448 11.766 14.1661C11.7773 14.2011 11.8194 14.2224 11.8778 14.2221L11.879 14.364C11.7532 14.365 11.6612 14.3051 11.6303 14.2101C11.6227 14.1864 11.6187 14.1628 11.6196 14.1387C11.6201 14.1134 11.6213 14.0945 11.6246 14.081C11.6277 14.0675 11.6326 14.0484 11.6402 14.0221C11.6541 13.9762 11.6577 13.9415 11.6496 13.9166C11.6383 13.8817 11.5967 13.8616 11.5366 13.8611L11.5376 13.7183L11.5378 13.7185Z" fill="#ECAF0B"/>
<path d="M11 12.2523L11.0035 12.1097L11.6926 12.1272L11.6992 11.8657L11.8418 11.8695L11.8316 12.2731L11 12.2523Z" fill="#ECAF0B"/>
<path d="M11.2139 11.2791L11.0737 11.2531L11.1451 10.8677L11.2854 10.8937L11.2627 11.0162L11.7999 11.1157L11.8226 10.9932L11.9626 11.0192L11.8914 11.4044L11.7512 11.3784L11.7739 11.2559L11.2366 11.1564L11.2139 11.2791Z" fill="#ECAF0B"/>
<path d="M11.4413 9.89355L11.5753 9.94179L11.4912 10.1764L11.6813 10.2447L11.7614 10.021L11.8957 10.0692L11.8153 10.2927L12.1397 10.409L12.0915 10.5433L11.3091 10.2624L11.4413 9.89355Z" fill="#ECAF0B"/>
<path d="M11.8913 8.98047L12.0159 9.04999L11.8943 9.26776L12.071 9.36612L12.1864 9.15852L12.311 9.2278L12.1953 9.4354L12.3717 9.53353L12.493 9.31576L12.6176 9.3848L12.4271 9.72743L11.7007 9.32309L11.8913 8.98047Z" fill="#ECAF0B"/>
<path d="M12.728 8.24485L12.6389 8.35622L12.6112 8.33399C12.5731 8.30349 12.5171 8.30893 12.4852 8.34865C12.4532 8.38837 12.4592 8.44205 12.4991 8.47397C12.5223 8.49241 12.5473 8.49903 12.5805 8.49028C12.6124 8.48083 12.6258 8.47326 12.6644 8.45411C12.7356 8.4184 12.7762 8.40185 12.8384 8.39263C12.8999 8.38246 12.9562 8.40161 13.0127 8.44701C13.0683 8.4917 13.0999 8.54727 13.108 8.6149C13.117 8.68158 13.0976 8.74353 13.0508 8.80217C13.0039 8.86033 12.9474 8.89297 12.8805 8.89864C12.8136 8.90431 12.7524 8.88564 12.6968 8.84095L12.6691 8.81872L12.7583 8.70735L12.7859 8.72958C12.8332 8.76741 12.9018 8.76008 12.9396 8.71255C12.9782 8.66431 12.9706 8.59598 12.9233 8.55791C12.8964 8.53639 12.8694 8.52835 12.8316 8.53923C12.8126 8.54396 12.7973 8.54987 12.7852 8.55531C12.7739 8.5598 12.7545 8.56879 12.7289 8.58179C12.6065 8.64327 12.5062 8.66195 12.4097 8.58487C12.3587 8.54396 12.3286 8.49218 12.3211 8.43141C12.3135 8.3704 12.3308 8.31271 12.374 8.25903C12.4632 8.14766 12.5901 8.13395 12.7006 8.22215L12.7285 8.24437L12.728 8.24485Z" fill="#ECAF0B"/>
<path d="M13.0528 7.75021L12.9585 7.64333L13.3146 7.32861L13.4089 7.43549L13.2843 7.54568L13.7404 8.06209L13.6336 8.15644L13.1775 7.64002L13.0528 7.75021Z" fill="#ECAF0B"/>
<path d="M13.7822 6.97847L13.9172 6.89642L14.2041 7.08487L14.1691 6.74343L14.3041 6.66162L14.3587 7.20215L14.5356 7.4937L14.4138 7.56747L14.2374 7.27735L13.7822 6.97847Z" fill="#ECAF0B"/>
<path d="M14.853 6.4009L14.9859 6.34912L15.2358 6.99109L15.4792 6.89604L15.5309 7.02916L15.1547 7.17553L14.853 6.4009Z" fill="#ECAF0B"/>
<path d="M16.2029 6L16.2322 6.13951L15.9882 6.19082L16.0298 6.38849L16.2622 6.33955L16.2915 6.47905L16.0591 6.528L16.1007 6.72568L16.3447 6.67413L16.3741 6.81364L15.9905 6.89427L15.8193 6.08087L16.2029 6Z" fill="#ECAF0B"/>
<path d="M18.4558 6.35848C18.4014 6.47221 18.3089 6.52825 18.2101 6.51524C18.1853 6.51217 18.1623 6.50555 18.1396 6.49515C18.0954 6.47505 18.0796 6.45849 18.0422 6.42492C18.0056 6.39252 17.9758 6.37432 17.9533 6.37124C17.9169 6.36651 17.8795 6.39513 17.8547 6.44809L17.7261 6.38803C17.7793 6.27406 17.8731 6.21684 17.972 6.22984C17.9968 6.23315 18.0197 6.23978 18.041 6.25089C18.0635 6.26224 18.0803 6.2717 18.0912 6.28021C18.102 6.28896 18.1172 6.30173 18.1373 6.3197C18.1727 6.35185 18.2025 6.3703 18.2285 6.37361C18.265 6.37857 18.3011 6.34973 18.3274 6.29558L18.4558 6.358V6.35848Z" fill="#ECAF0B"/>
<path d="M20.3614 6.68512L20.2966 6.8121L20.0741 6.6986L19.9823 6.87854L20.1942 6.98684L20.1292 7.11381L19.9175 7.00575L19.761 7.31267L19.6338 7.24788L20.0121 6.50684L20.3614 6.68512Z" fill="#ECAF0B"/>
<path d="M20.7988 7.12322L20.883 7.0083L21.1989 7.23979L21.1147 7.35471L21.0142 7.28093L20.6914 7.72144L20.7919 7.79522L20.7077 7.91013L20.3916 7.67841L20.476 7.56349L20.5765 7.63727L20.8993 7.19675L20.7988 7.12322Z" fill="#ECAF0B"/>
<path d="M21.5537 7.73015L21.6554 7.63037L21.9878 7.97015L21.8859 8.06994L21.7696 7.95077L21.277 8.43289L21.1772 8.33098L21.6698 7.84909L21.5537 7.73015Z" fill="#ECAF0B"/>
<path d="M21.7779 9.038L21.6973 8.92072L22.3818 8.44971L22.4594 8.56226L22.1893 8.97842L22.5669 8.71879L22.6476 8.83607L21.963 9.30709L21.8855 9.19454L22.1555 8.77838L21.7779 9.038Z" fill="#ECAF0B"/>
<path d="M23.1261 9.74844L22.9968 9.80826L22.8918 9.58198L22.7085 9.66686L22.8083 9.88227L22.679 9.94233L22.5792 9.72669L22.3959 9.81157L22.5007 10.0381L22.3714 10.0979L22.2065 9.74206L22.9613 9.39258L23.1261 9.74844Z" fill="#ECAF0B"/>
<path d="M23.2271 10.8612L23.19 10.7236L23.2245 10.7143C23.2715 10.7016 23.3004 10.6533 23.2871 10.6039C23.2739 10.5545 23.2271 10.5278 23.1779 10.541C23.1493 10.5488 23.1292 10.5654 23.1167 10.5971C23.1055 10.6283 23.1034 10.6436 23.0963 10.6862C23.0831 10.7649 23.0722 10.8073 23.0431 10.8631C23.015 10.9186 22.9663 10.9527 22.8963 10.9716C22.8275 10.99 22.7639 10.9827 22.7045 10.9494C22.6454 10.9175 22.6066 10.865 22.5872 10.7928C22.5678 10.7205 22.5749 10.6559 22.6099 10.5985C22.6449 10.541 22.6962 10.5027 22.7651 10.4843L22.7993 10.475L22.8365 10.6127L22.8022 10.6219C22.7438 10.6375 22.7092 10.6973 22.7251 10.756C22.7412 10.8155 22.801 10.8501 22.8594 10.8342C22.8925 10.8252 22.9152 10.8082 22.9284 10.7713C22.936 10.7531 22.9403 10.7373 22.9429 10.7243C22.9459 10.7124 22.95 10.6914 22.9547 10.6633C22.9772 10.528 23.0216 10.436 23.1408 10.4039C23.2039 10.3869 23.2635 10.393 23.3169 10.423C23.3704 10.4528 23.4068 10.5008 23.4248 10.5675C23.4619 10.7051 23.398 10.8158 23.2616 10.8527L23.2273 10.8619L23.2271 10.8612Z" fill="#ECAF0B"/>
<path d="M23.3715 11.9083L23.3592 11.7662L23.3947 11.7631C23.4432 11.7589 23.4801 11.7163 23.4756 11.6652C23.4711 11.6144 23.4299 11.5799 23.3789 11.5844C23.3493 11.587 23.3266 11.5997 23.3089 11.6286C23.2923 11.6574 23.2876 11.6721 23.2734 11.7128C23.2464 11.788 23.2287 11.8277 23.1902 11.8776C23.1528 11.9272 23.0989 11.9523 23.0268 11.9587C22.9558 11.9651 22.8946 11.9464 22.8419 11.9034C22.7894 11.8615 22.7603 11.8031 22.7537 11.7286C22.7473 11.6539 22.7655 11.5917 22.8102 11.5413C22.8546 11.491 22.9116 11.4621 22.9826 11.4557L23.018 11.4527L23.0306 11.5948L22.9951 11.5979C22.9348 11.6031 22.8903 11.656 22.8958 11.7163C22.9012 11.7778 22.954 11.822 23.0145 11.8168C23.0488 11.8137 23.0738 11.8007 23.0935 11.7669C23.1039 11.7506 23.111 11.7357 23.1159 11.7234C23.1209 11.7123 23.1287 11.6924 23.1382 11.6652C23.184 11.5359 23.2436 11.4534 23.3666 11.4425C23.4316 11.4368 23.4893 11.4531 23.5366 11.4919C23.5841 11.5307 23.6115 11.5844 23.6174 11.6532C23.63 11.7951 23.5479 11.8929 23.407 11.9055L23.3715 11.9086V11.9083Z" fill="#ECAF0B"/>
<path d="M12.5687 15.5743L12.5966 15.6129C12.628 15.6562 12.6871 15.6647 12.7302 15.6332C12.7734 15.6018 12.7826 15.5438 12.7512 15.5003L12.7233 15.4618L12.5687 15.5743ZM12.4533 15.6583L12.2811 15.7834L12.309 15.8219C12.3447 15.8709 12.4105 15.8803 12.4575 15.8463C12.5036 15.8127 12.5138 15.7479 12.4831 15.6997L12.453 15.6583H12.4533ZM12.6271 15.7741C12.6275 15.8576 12.5951 15.9222 12.5289 15.9704C12.4741 16.0104 12.415 16.0238 12.3509 16.0104C12.2868 15.9966 12.235 15.9621 12.1939 15.9056L12.082 15.7517L12.7547 15.2627L12.8666 15.4164C12.9063 15.4712 12.9219 15.5289 12.9148 15.5899C12.9084 15.6519 12.8784 15.7016 12.8257 15.7401C12.7651 15.7841 12.6987 15.7957 12.6273 15.7741H12.6271Z" fill="#ECAF0B"/>
<path d="M13.6145 16.2623L13.5145 16.364L13.3365 16.189L13.1948 16.333L13.3644 16.4997L13.2643 16.6014L13.0948 16.4347L12.9532 16.5787L13.1312 16.7537L13.0312 16.8553L12.7515 16.5803L13.3348 15.9873L13.6145 16.2623Z" fill="#ECAF0B"/>
<path d="M14.2674 16.9644L13.9316 17.1639L14.2255 17.3529L14.2674 16.9644ZM13.6233 17.3472L13.4883 17.2604L14.2868 16.7847L14.4218 16.8714L14.322 17.7962L14.1879 17.7101L14.2083 17.5113L13.7945 17.2453L13.6231 17.347L13.6233 17.3472Z" fill="#ECAF0B"/>
<path d="M15.1731 17.2673L15.3065 17.3172L15.0901 17.8958C15.0724 17.9436 15.0967 17.9932 15.1424 18.0105C15.188 18.0275 15.2391 18.006 15.257 17.9582L15.4736 17.3799L15.607 17.4298L15.3906 18.0081C15.3677 18.0694 15.3282 18.1141 15.2726 18.1403C15.2171 18.1666 15.157 18.1682 15.0925 18.1439C15.0279 18.1197 14.9837 18.0791 14.9589 18.0228C14.9343 17.9668 14.9338 17.9069 14.9565 17.8457L15.1729 17.2671L15.1731 17.2673Z" fill="#ECAF0B"/>
<path d="M16.0381 17.6973L16.0643 17.5571L16.5313 17.6444L16.5051 17.7846L16.3417 17.7541L16.2154 18.4311L16.0752 18.4051L16.2015 17.7278L16.0381 17.6973Z" fill="#ECAF0B"/>
<path d="M16.9678 17.6929L17.1255 17.6943L17.2704 18.0055L17.4201 17.6967L17.5781 17.6978L17.3402 18.1866L17.3374 18.5273L17.1948 18.5261L17.1976 18.1866L16.9678 17.6929Z" fill="#ECAF0B"/>
<path d="M19.3293 10.3844C18.7803 9.8354 17.8905 9.8354 17.3412 10.3844L17.3086 10.4168L17.3034 10.4116L17.279 10.387C16.73 9.83823 15.8402 9.83823 15.2912 10.387C14.7421 10.9358 14.7421 11.8261 15.2912 12.3751L15.3155 12.3995L15.33 12.4139L17.3034 14.3874L19.2823 12.4087L19.2875 12.4139L19.3293 12.3721C19.8781 11.823 19.8781 10.9332 19.3293 10.3842V10.3844Z" fill="#ECAF0B"/>
</svg>
