<svg width="80" height="40" viewBox="0 0 80 40" fill="none" xmlns="http://www.w3.org/2000/svg">
<path d="M37.3343 22.6045C37.654 22.6045 37.9408 22.4913 38.0679 22.4383C38.1078 22.6713 38.1471 22.9054 38.1946 23.1388C38.0808 23.1722 37.7273 23.3452 37.1742 23.3452C35.9933 23.3452 35.3867 22.599 35.3867 21.0575C35.3867 19.5169 35.9933 18.7695 37.1742 18.7695C37.7273 18.7695 38.0808 18.9429 38.1946 18.9762C38.1471 19.2097 38.1078 19.4429 38.0679 19.677C37.9408 19.6232 37.654 19.51 37.3343 19.51C36.5733 19.51 36.3539 20.0169 36.3539 21.0575C36.3539 22.0982 36.5733 22.6047 37.3343 22.6047V22.6045Z" fill="#E53A24"/>
<path d="M41.9797 23.2455H41.0995V21.0305C41.0995 20.8239 41.1325 20.5837 41.1325 20.4835H41.1261L39.7318 23.2455H38.9448V18.856H39.8252V21.0904C39.8252 21.2776 39.7984 21.5312 39.7984 21.6309C40.2655 20.7169 40.7261 19.7766 41.1924 18.856H41.9797V23.2455Z" fill="#E53A24"/>
<path d="M43.9248 21.1708V22.5851C44.0388 22.5921 44.1525 22.592 44.2582 22.592C44.673 22.592 44.9395 22.3311 44.9395 21.858C44.9395 21.3302 44.6854 21.1505 44.2851 21.1505C44.1386 21.1505 43.9659 21.1639 43.9248 21.1708ZM45.5992 19.6167H43.9248V20.5037C44.0249 20.4902 44.2316 20.4835 44.4453 20.4835C45.2859 20.4835 45.8604 20.8239 45.8604 21.8114C45.8604 22.8512 45.1731 23.2916 44.1849 23.2916C43.6656 23.2916 43.2317 23.2455 42.9985 23.2455V18.856H45.5992V19.6168V19.6167Z" fill="#E53A24"/>
<path d="M49.6857 23.2455H48.8055V21.0305C48.8055 20.8239 48.8388 20.5837 48.8388 20.4835H48.8322L47.4376 23.2455H46.6499V18.856H47.5311V21.0904C47.5311 21.2776 47.5043 21.5312 47.5043 21.6309C47.9711 20.7169 48.4318 19.7766 48.8985 18.856H49.6856V23.2455H49.6857Z" fill="#E53A24"/>
<path d="M51.6029 19.5302V21.1176H51.8504C52.2363 21.1176 52.4974 20.9174 52.4974 20.3168C52.4974 19.7768 52.27 19.5236 51.8833 19.5236C51.7968 19.5236 51.703 19.5236 51.6029 19.5302V19.5302ZM50.7026 18.8561C50.936 18.8561 51.4226 18.8164 51.8504 18.8164C52.9899 18.8164 53.4314 19.3299 53.4314 20.3168C53.4314 21.4244 52.7639 21.8116 51.9164 21.8116C51.8031 21.8116 51.6969 21.8047 51.6029 21.7981V23.2457H50.7026V18.8562V18.8561Z" fill="#E53A24"/>
<path d="M55.9497 22.6045C56.2696 22.6045 56.5566 22.4913 56.6839 22.4383C56.7231 22.6713 56.7629 22.9054 56.8097 23.1388C56.6962 23.1722 56.3429 23.3452 55.7894 23.3452C54.609 23.3452 54.002 22.599 54.002 21.0575C54.002 19.5169 54.609 18.7695 55.7894 18.7695C56.3428 18.7695 56.6962 18.9429 56.8097 18.9762C56.7629 19.2097 56.7231 19.4429 56.6839 19.677C56.5566 19.6232 56.2697 19.51 55.9497 19.51C55.189 19.51 54.969 20.0169 54.969 21.0575C54.969 22.0982 55.1891 22.6047 55.9497 22.6047V22.6045Z" fill="#E53A24"/>
<path d="M57.5601 18.856H58.4876V20.777L59.5616 18.856H60.595L59.3545 20.8434C59.8082 21.6442 60.275 22.4448 60.7292 23.2456H59.6288L58.4876 21.1039V23.2456H57.5601V18.856V18.856Z" fill="#E53A24"/>
<path d="M64.3745 23.2455H63.4939V21.0305C63.4939 20.8239 63.5276 20.5837 63.5276 20.4835H63.5207L62.1264 23.2455H61.3394V18.856H62.2204V21.0904C62.2204 21.2776 62.1928 21.5312 62.1928 21.6309C62.6607 20.7169 63.1207 19.7766 63.5881 18.856H64.3744V23.2455H64.3745Z" fill="#E53A24"/>
<path d="M67.4932 17.5356L67.94 17.6885C67.94 18.0556 67.6187 18.4893 66.9329 18.4893C66.2523 18.4893 65.9252 18.0685 65.9252 17.7023C66.0717 17.6488 66.219 17.5887 66.3725 17.5356C66.3725 17.6686 66.5524 17.9153 66.9329 17.9153C67.3127 17.9153 67.4932 17.6554 67.4932 17.5356ZM68.4265 23.2456H67.547V21.0306C67.547 20.8239 67.58 20.5838 67.58 20.4836H67.573L66.1793 23.2456H65.3916V18.856H66.2728V21.0905C66.2728 21.2777 66.2455 21.5313 66.2455 21.631C66.7123 20.717 67.1727 19.7767 67.6402 18.856H68.4265V23.2456Z" fill="#E53A24"/>
<path d="M39.7814 29.1449H38.8469C38.8143 28.6966 38.6869 26.9169 38.6538 26.3505C38.5335 26.783 38.0464 28.4438 37.94 28.7716H37.3065C37.1992 28.4437 36.6987 26.8101 36.5855 26.3505L36.3988 29.1449H35.4985L35.9186 24.7559H36.8187C36.9529 25.1229 37.506 27.0027 37.6396 27.5238C37.7733 27.0094 38.3469 25.1229 38.4734 24.7559H39.3806L39.7813 29.1449H39.7814Z" fill="#E53A24"/>
<path d="M42.0254 25.4159C41.5181 25.4159 41.3056 25.9758 41.3056 26.9501C41.3056 27.9245 41.5119 28.4904 42.0254 28.4904C42.5457 28.4904 42.7596 27.9244 42.7596 26.9501C42.7596 25.9758 42.5391 25.4159 42.0254 25.4159ZM42.0254 29.2312C40.9512 29.2312 40.3511 28.5042 40.3511 26.9501C40.3511 25.3953 40.9512 24.6753 42.0254 24.6753C43.106 24.6753 43.7071 25.3953 43.7071 26.9501C43.7071 28.5042 43.106 29.2312 42.0254 29.2312Z" fill="#E53A24"/>
<path d="M47.3958 24.7559V29.1449H46.475V25.5358H45.6746C45.6285 26.4768 45.5618 27.2964 45.482 28.0165C45.3745 28.9316 44.9484 29.1846 44.2884 29.1846C44.2273 29.1846 44.1743 29.1775 44.1216 29.1721L44.1342 28.4904C44.3941 28.4706 44.5478 28.3504 44.6079 28.0101C44.7213 27.1906 44.7882 26.1489 44.8414 24.7559H47.3958Z" fill="#E53A24"/>
<path d="M51.4042 24.7559V29.1449H50.4834V25.5358H49.6828C49.6363 26.4768 49.57 27.2964 49.4891 28.0165C49.3832 28.9316 48.9563 29.1846 48.2953 29.1846C48.2355 29.1846 48.1823 29.1775 48.1289 29.1721L48.142 28.4904C48.4023 28.4706 48.5555 28.3504 48.6157 28.0101C48.7293 27.1906 48.796 26.1489 48.8492 24.7559H51.4042Z" fill="#E53A24"/>
<path d="M25.1114 9C25.1114 9 27.8896 12.166 27.2801 16.0082C26.6702 19.8642 23.0377 22.0156 23.0377 22.0156C23.0377 22.0156 20.2596 18.8493 20.8832 14.9939C21.4794 11.151 25.1113 9 25.1113 9H25.1114Z" fill="#FBBA00"/>
<path d="M33.1748 19.0527C33.1748 19.0527 31.7516 21.8671 28.7432 22.7462C25.7477 23.6259 23.0376 22.0159 23.0376 22.0159C23.0376 22.0159 24.4608 19.1882 27.4555 18.3223C30.4507 17.443 33.1748 19.0527 33.1748 19.0527Z" fill="#E53A24"/>
<path d="M30.4555 29.055C30.4555 29.055 27.7192 29.7891 25.5826 28.278C23.4383 26.7635 23.2212 23.9328 23.2212 23.9328C23.2212 23.9328 25.9576 23.1986 28.0976 24.7215C30.2381 26.2243 30.4555 29.0551 30.4555 29.0551V29.055Z" fill="#CF1981"/>
<path d="M21.9928 30.928C21.9928 30.928 20.7184 29.2325 21.0833 27.1565C21.4434 25.0878 23.2209 23.9321 23.2209 23.9321C23.2209 23.9321 24.5032 25.6315 24.1347 27.6957C23.7741 29.7634 21.9928 30.928 21.9928 30.928H21.9928Z" fill="#009DD0"/>
<path d="M14.4575 27.897C14.4575 27.897 17.0999 28.4373 19.2867 26.8868C21.4664 25.3459 21.826 22.6739 21.826 22.6739C21.826 22.6739 19.1744 22.1268 17.0042 23.6748C14.8246 25.2162 14.4575 27.897 14.4575 27.897Z" fill="#E53A24"/>
<path d="M12 17.1538C12 17.1538 12.6475 20.6972 15.5477 22.3284C18.4561 23.9665 21.8268 22.6735 21.8268 22.6735C21.8268 22.6735 21.1792 19.1298 18.2633 17.5009C15.3704 15.8603 12 17.1538 12 17.1538Z" fill="#CF1981"/>
</svg>
