<svg width="60" height="40" viewBox="0 0 60 40" fill="none" xmlns="http://www.w3.org/2000/svg">
<path d="M46.8038 22.4692C44.334 25.685 42.1602 27.0003 42.1602 27.0003C42.1602 27.0003 45.0172 26.5067 47.2231 24.5967C49.2792 22.8162 50.9075 20.3322 51.2588 17.1679C51.7453 12.7858 48.0732 13.3101 48.0732 13.3101C48.0732 13.3101 49.935 13.3815 49.639 16.2522C49.4499 18.0837 48.8292 19.8325 46.8043 22.4692H46.8038Z" fill="#EC1C24"/>
<path d="M42.8555 21.5927C41.9397 23.1722 40.1578 24.4936 39.4477 24.0984C38.8662 23.775 38.9078 22.5647 39.0293 21.9118C39.2477 20.7365 39.86 18.4279 41.8858 16.1779C45.1726 12.5281 48.0674 12 48.0674 12C48.0674 12 46.3876 11.9872 43.8569 13.1734C42.5761 13.7739 41.1634 14.8594 39.8884 16.2957C37.1623 19.3654 36.8328 22.3236 36.8508 23.619C36.8602 24.3305 36.9382 25.2004 37.2328 25.7805C37.6795 26.6519 38.2743 26.9677 39.0586 26.9743C40.0713 26.9819 41.266 26.224 42.4168 24.6738C43.3387 23.4308 44.2843 21.369 45.3371 17.4691C45.8359 15.6191 46.9299 14.5828 46.9299 14.5828C46.9299 14.5828 45.6884 15.3321 44.7972 17.2474C44.1131 18.7168 43.7713 20.0136 42.856 21.5931L42.8555 21.5927Z" fill="#EC1C24"/>
<path d="M44.5649 16.3175C44.5649 16.1875 44.52 16.0764 44.4287 15.9847C44.338 15.8939 44.2269 15.848 44.0983 15.848C43.9678 15.848 43.8581 15.8939 43.7664 15.9847C43.6765 16.0764 43.6307 16.1875 43.6307 16.3175C43.6307 16.447 43.6765 16.5572 43.7664 16.6475C43.8581 16.7383 43.9678 16.7846 44.0983 16.7846C44.2273 16.7846 44.338 16.7387 44.4287 16.647C44.5195 16.5567 44.5649 16.4461 44.5649 16.3175ZM44.658 16.3175C44.658 16.4711 44.6037 16.603 44.494 16.7137C44.3848 16.8219 44.2524 16.8773 44.0983 16.8773C43.9427 16.8773 43.8108 16.8229 43.7007 16.7141C43.5905 16.6049 43.5361 16.473 43.5361 16.3175C43.5361 16.1619 43.591 16.0291 43.7007 15.9199C43.8103 15.8097 43.9427 15.7549 44.0983 15.7549C44.2543 15.7549 44.3867 15.8097 44.4949 15.9199C44.6037 16.0291 44.6576 16.1619 44.6576 16.3175H44.658Z" fill="#2B2A29"/>
<path d="M43.9771 16.1087V16.311H44.1458C44.2201 16.311 44.2527 16.2642 44.2527 16.2117C44.2527 16.1612 44.2205 16.1087 44.1473 16.1087H43.9771ZM44.3676 16.5838H44.264L44.0948 16.3923H43.9766V16.5838H43.8882V16.0278C43.9747 16.0278 44.0603 16.0283 44.1468 16.0283C44.2754 16.0283 44.3435 16.1167 44.3435 16.2094C44.3435 16.2893 44.3019 16.3673 44.1922 16.3834L44.3581 16.5677L44.3676 16.5838Z" fill="#2B2A29"/>
<path d="M11.4257 24.2882V24.1308H11.9746V24.2216C11.9746 24.5502 11.8035 24.7672 11.4673 24.7672C11.1317 24.7672 10.9028 24.5506 10.9028 24.1814C10.9028 23.8126 11.1321 23.5781 11.4673 23.5781C11.6683 23.5781 11.8224 23.6443 11.9236 23.7932L11.7713 23.9171C11.6995 23.807 11.6035 23.7545 11.4673 23.7545C11.2749 23.7545 11.109 23.8873 11.109 24.1724C11.109 24.4698 11.2749 24.5903 11.4673 24.5903C11.6702 24.5903 11.7732 24.4783 11.7732 24.2878H11.4253L11.4257 24.2882Z" fill="#2B2A29"/>
<path d="M13.0005 24.5908C13.2227 24.5908 13.357 24.4301 13.357 24.1729C13.357 23.9143 13.2223 23.755 13.0005 23.755C12.7821 23.755 12.6422 23.9143 12.6422 24.1729C12.6422 24.4301 12.7821 24.5908 13.0005 24.5908ZM13.0005 23.5786C13.3485 23.5786 13.5636 23.8183 13.5636 24.1729C13.5636 24.5294 13.3485 24.7677 13.0005 24.7677C12.6507 24.7677 12.436 24.5298 12.436 24.1729C12.436 23.8178 12.6511 23.5786 13.0005 23.5786Z" fill="#2B2A29"/>
<path d="M14.0483 23.6055H14.2512V24.221C14.2512 24.4465 14.3192 24.5846 14.5344 24.5846C14.7547 24.5846 14.8194 24.4465 14.8194 24.221V23.6055H15.0223V24.2749C15.0223 24.6087 14.8175 24.768 14.5381 24.768C14.2601 24.768 14.0483 24.6092 14.0483 24.2749V23.6055Z" fill="#2B2A29"/>
<path d="M15.8925 24.1841C16.0811 24.1841 16.1879 24.1336 16.1879 23.9728C16.1879 23.8102 16.0674 23.7752 15.8925 23.7752H15.7492V24.1841H15.8925ZM15.7492 24.742H15.5464V23.6055H15.943C16.1965 23.6055 16.3908 23.7104 16.3908 23.9728C16.3908 24.1407 16.3033 24.2527 16.1827 24.3085L16.4574 24.742H16.2125L15.9851 24.3487C15.9676 24.3506 15.9643 24.352 15.943 24.352H15.7487V24.742H15.7492Z" fill="#2B2A29"/>
<path d="M17.1359 24.0648V24.7414H16.9331V23.5698H16.9421L17.5189 24.2695L18.0928 23.5698H18.1013V24.7414H17.9004V24.0648L17.5246 24.5333H17.5104L17.1359 24.0648Z" fill="#2B2A29"/>
<path d="M18.6431 23.6055H19.4109V23.7785H18.8459V24.0792H19.3144V24.2456H18.8459V24.569H19.4284V24.742H18.6431V23.6055Z" fill="#2B2A29"/>
<path d="M20.8084 23.7785H20.4448V24.742H20.242V23.7785H19.8779V23.6055H20.8084V23.7785Z" fill="#2B2A29"/>
<path d="M22.5653 24.5908C22.7014 24.5908 22.8012 24.5365 22.8745 24.4249L23.0215 24.5317C22.9203 24.6963 22.7648 24.7677 22.5615 24.7677C22.2258 24.7677 21.9951 24.5511 21.9951 24.1819C21.9951 23.8131 22.2239 23.5786 22.5596 23.5786C22.7605 23.5786 22.9043 23.6505 23.0073 23.8022L22.8622 23.9157C22.7818 23.797 22.6962 23.755 22.5596 23.755C22.3672 23.755 22.2012 23.8878 22.2012 24.1729C22.2012 24.4703 22.3724 24.5908 22.5648 24.5908H22.5653Z" fill="#2B2A29"/>
<path d="M24.0235 24.5908C24.2457 24.5908 24.38 24.4301 24.38 24.1729C24.38 23.9143 24.2452 23.755 24.0235 23.755C23.8051 23.755 23.6651 23.9143 23.6651 24.1729C23.6651 24.4301 23.8051 24.5908 24.0235 24.5908ZM24.0235 23.5786C24.3714 23.5786 24.5866 23.8183 24.5866 24.1729C24.5866 24.5294 24.3714 24.7677 24.0235 24.7677C23.6736 24.7677 23.459 24.5298 23.459 24.1729C23.459 23.8178 23.6741 23.5786 24.0235 23.5786Z" fill="#2B2A29"/>
<path d="M25.0879 23.6055H25.8467V23.7785H25.2907V24.0863H25.7068V24.2522H25.2907V24.742H25.0879V23.6055Z" fill="#2B2A29"/>
<path d="M26.3364 23.6055H27.0957V23.7785H26.5397V24.0863H26.9558V24.2522H26.5397V24.742H26.3364V23.6055Z" fill="#2B2A29"/>
<path d="M27.5854 23.6055H28.3532V23.7785H27.7883V24.0792H28.2568V24.2456H27.7883V24.569H28.3703V24.742H27.5854V23.6055Z" fill="#2B2A29"/>
<path d="M28.8721 23.6055H29.6394V23.7785H29.0749V24.0792H29.5434V24.2456H29.0749V24.569H29.6574V24.742H28.8721V23.6055Z" fill="#2B2A29"/>
<path d="M31.4271 24.5908C31.5637 24.5908 31.663 24.5365 31.7368 24.4249L31.8833 24.5317C31.7817 24.6963 31.6266 24.7677 31.4238 24.7677C31.0881 24.7677 30.8569 24.5511 30.8569 24.1819C30.8569 23.8131 31.0862 23.5786 31.4219 23.5786C31.6228 23.5786 31.7661 23.6505 31.8696 23.8022L31.7245 23.9157C31.6441 23.797 31.5585 23.755 31.4224 23.755C31.23 23.755 31.064 23.8878 31.064 24.1729C31.064 24.4703 31.2352 24.5908 31.4276 24.5908H31.4271Z" fill="#2B2A29"/>
<path d="M32.8838 24.5908C33.106 24.5908 33.2408 24.4301 33.2408 24.1729C33.2408 23.9143 33.106 23.755 32.8838 23.755C32.6654 23.755 32.5255 23.9143 32.5255 24.1729C32.5255 24.4301 32.6654 24.5908 32.8838 24.5908ZM32.8838 23.5786C33.2318 23.5786 33.4469 23.8183 33.4469 24.1729C33.4469 24.5294 33.2318 24.7677 32.8838 24.7677C32.5345 24.7677 32.3193 24.5298 32.3193 24.1729C32.3193 23.8178 32.5345 23.5786 32.8838 23.5786Z" fill="#2B2A29"/>
<path d="M33.9492 24.742V23.6055H34.152V24.5586H34.7113V24.742H33.9492Z" fill="#2B2A29"/>
<path d="M35.2017 24.742V23.6055H35.4045V24.5586H35.9638V24.742H35.2017Z" fill="#2B2A29"/>
<path d="M36.4531 23.6055H37.2209V23.7785H36.6559V24.0792H37.1249V24.2456H36.6559V24.569H37.2384V24.742H36.4531V23.6055Z" fill="#2B2A29"/>
<path d="M38.2382 24.5908C38.3748 24.5908 38.4745 24.5365 38.5478 24.4249L38.6949 24.5317C38.5932 24.6963 38.4377 24.7677 38.2348 24.7677C37.8992 24.7677 37.6685 24.5511 37.6685 24.1819C37.6685 23.8131 37.8973 23.5786 38.233 23.5786C38.4339 23.5786 38.5771 23.6505 38.6807 23.8022L38.5355 23.9157C38.4552 23.797 38.3696 23.755 38.233 23.755C38.0405 23.755 37.8746 23.8878 37.8746 24.1729C37.8746 24.4703 38.0457 24.5908 38.2382 24.5908Z" fill="#2B2A29"/>
<path d="M40.0759 23.7785H39.7124V24.742H39.5095V23.7785H39.1455V23.6055H40.0759V23.7785Z" fill="#2B2A29"/>
<path d="M40.7678 24.742H40.5649V23.6055H40.7678V24.742Z" fill="#2B2A29"/>
<path d="M41.835 24.5908C42.0572 24.5908 42.192 24.4301 42.192 24.1729C42.192 23.9143 42.0572 23.755 41.835 23.755C41.6166 23.755 41.4766 23.9143 41.4766 24.1729C41.4766 24.4301 41.6166 24.5908 41.835 24.5908ZM41.835 23.5786C42.183 23.5786 42.3981 23.8183 42.3981 24.1729C42.3981 24.5294 42.183 24.7677 41.835 24.7677C41.4856 24.7677 41.2705 24.5298 41.2705 24.1729C41.2705 23.8178 41.4856 23.5786 41.835 23.5786Z" fill="#2B2A29"/>
<path d="M43.1032 24.0175V24.7414H42.9004V23.5698H42.9089L43.6781 24.3272V23.6048H43.8809V24.7764H43.8724L43.1032 24.0175Z" fill="#2B2A29"/>
<path d="M10.9601 18.6151C10.9748 19.755 11.5142 20.1374 12.0608 20.1289C12.5477 20.1218 12.9912 19.694 12.9912 18.9077V15.7623H10.9601V13.8901H15.1589V18.8969C15.1589 20.6948 14.001 21.994 12.0906 22.0092C10.3233 22.0229 9 20.8556 9 18.6151H10.9601Z" fill="#2B2A29"/>
<path d="M17.8864 19.2174C17.8864 19.9729 18.3677 20.3998 18.9696 20.3998C19.6489 20.3998 20.0863 19.8524 20.0863 19.2174C20.0863 18.495 19.6811 18.0241 18.9696 18.0241C18.3672 18.0241 17.8864 18.4614 17.8864 19.2174ZM20.0967 16.5126H22.0908V21.9222H20.1416V21.3421C19.6816 21.8673 18.9592 22.0536 18.3573 22.0205C16.7693 21.9222 15.8823 20.7941 15.8823 19.2174C15.8823 17.6189 16.9333 16.3921 18.5096 16.3921C19.2759 16.3921 19.8135 16.655 20.0981 17.0927L20.0967 16.5122V16.5126Z" fill="#2B2A29"/>
<path d="M25.0697 16.5123L25.0701 17.1037C25.3552 16.6002 25.8592 16.3804 26.3849 16.3804C26.8837 16.3804 27.3901 16.5392 27.7342 16.8858L27.0303 18.4067C26.7376 18.1817 26.4785 18.0895 26.1485 18.0895C25.6441 18.0895 25.1586 18.3958 25.1586 19.1083V21.9218H23.144V16.5123H25.0697Z" fill="#2B2A29"/>
<path d="M29.8742 19.2057C29.8742 19.9612 30.3565 20.3881 30.9583 20.3881C31.6377 20.3881 32.0424 19.8297 32.0424 19.2605C32.0424 18.6029 31.6698 18.0119 30.9583 18.0119C30.3565 18.0119 29.8742 18.4497 29.8742 19.2052V19.2057ZM31.9984 13.8931H34.0129V21.91H32.1303V21.3299C31.6698 21.8556 30.947 22.0414 30.3451 22.0088C28.7575 21.91 27.8701 20.9138 27.8701 19.2057C27.8701 17.5524 28.9211 16.3804 30.4978 16.3804C31.1876 16.3804 31.7025 16.5992 31.9979 16.9609V13.8935L31.9984 13.8931Z" fill="#2B2A29"/>
<path d="M37.0922 16.5103H35.0659V21.9221H37.0922V16.5103Z" fill="#2B2A29"/>
<path d="M41.8379 21.9222V19.0137C41.8379 18.3456 41.4379 18.0355 41.0181 18.0355C40.5358 18.0355 40.1515 18.3631 40.1515 19.0751V21.9222H38.1587V16.5127H40.029L40.0314 17.1041C40.4919 16.567 41.123 16.3704 41.6922 16.3808C42.8316 16.3921 43.8533 16.9944 43.8533 18.9219V21.9217H41.8379V21.9222Z" fill="#2B2A29"/>
<path d="M37.1055 14.8191C37.1055 15.3406 36.6464 15.7628 36.0796 15.7628C35.5118 15.7628 35.0518 15.3406 35.0518 14.8191C35.0518 14.2976 35.5118 13.8745 36.0796 13.8745C36.6464 13.8745 37.1055 14.2976 37.1055 14.8191Z" fill="#2B2A29"/>
</svg>
